<?xml version="1.0" encoding="utf-8"?>
<!-- Generator: Adobe Illustrator 15.1.0, SVG Export Plug-In . SVG Version: 6.00 Build 0)  -->
<!DOCTYPE svg PUBLIC "-//W3C//DTD SVG 1.1//EN" "http://www.w3.org/Graphics/SVG/1.1/DTD/svg11.dtd">
<svg version="1.1"
	 id="Layer_1" mtc:dpi="90" xmlns:mtc="http://www.make-the-cut.com/namespaces/make-the-cut" xmlns:inkscape="http://www.inkscape.org/namespaces/inkscape"
	 xmlns="http://www.w3.org/2000/svg" xmlns:xlink="http://www.w3.org/1999/xlink" x="0px" y="0px" width="434.16px"
	 height="433.829px" viewBox="223.448 0 434.16 433.829" enable-background="new 223.448 0 434.16 433.829" xml:space="preserve">
<g id="Clipboard_Trace" inkscape:groupmode="layer">
	<path id="Trace_Path__x28_1_x29___x28_J_x29___x28_1_x29___x28_J_x29_" fill="none" stroke="#000000" stroke-linejoin="round" d="
		M444.148,226.524c-5.081,2.382-11.911-0.517-14.259-6.053c-1.854-4.367,0.039-10.926,3.875-13.433
		c3.976-2.599,9.172-2.165,13.082,1.09C452.684,212.99,451.183,223.227,444.148,226.524z M585.407,174.31
		c-5.978,2.777-11.778,5.156-12.89,5.287c-2.493,0.293-5.014-0.292-6.764-1.57c-2.141-1.564-16.695-31.199-17.122-34.868
		c-0.263-2.232,0.63-4.434,2.532-6.254c1.877-1.795,34.949-17.526,38.792-18.45c2.367-0.57,5.045,0.192,6.672,1.899
		c1.486,1.563,4.649,7.694,11.713,22.71c5.171,10.988,5.747,13.246,4.159,16.262C610.967,162.236,608.707,163.486,585.407,174.31z
		 M313.448,177.648c-2.567,1.312-5.394,0.932-10.615-1.422c-8.465-3.818-10.676-4.849-20.981-9.775
		c-8.466-4.047-10.418-5.186-11.985-6.994c-1.985-2.29-2.778-5.141-2.278-8.186c0.146-0.885,3.551-8.233,7.568-16.33
		c7.83-15.779,9.071-17.548,12.801-18.239c1.02-0.189,2.704-0.08,3.808,0.247c4.401,1.303,34.168,15.57,37.226,17.843
		c0.904,0.672,2.011,1.924,2.461,2.783c1.672,3.194,0.854,5.461-10.152,28.091C317.057,174.395,315.667,176.515,313.448,177.648z
		 M541.57,127.286c-2.352,0.997-3.704,0.86-6.77-0.684c-2.48-1.25-22.969-17.449-26.583-21.02
		c-3.451-3.407-4.003-6.909-1.703-10.806c1.423-2.41,20.685-26.229,23.957-29.623c1.97-2.044,4.882-3.579,6.767-3.564
		c2.322,0.018,5.109,1.582,12.025,6.752c17.168,12.833,22.807,18.817,21.755,23.092c-0.513,2.08-2.117,4.258-13.649,18.526
		C545.682,124.421,544.012,126.252,541.57,127.286z M345.547,126.044c-3.422,1.541-6.319,1.005-9.256-1.714
		c-0.643-0.594-5.971-7.264-11.84-14.818c-5.869-7.555-11.371-14.48-12.226-15.387c-1.365-1.448-1.556-2.004-1.556-4.53
		c0-3.783,1.396-5.864,7.205-10.744c8.552-7.182,22.13-17.288,23.882-17.774c5.955-1.652,7.531-0.25,25.354,22.568
		c7.703,9.863,9.006,11.962,9.015,14.527c0.008,2.521-0.896,4.085-4.125,7.141C365.766,111.209,348.581,124.679,345.547,126.044z
		 M597.894,98.546c-3.947,3.117-7.582,5.998-8.075,6.403c-0.818,0.671-1.139,0.489-3.665-2.087
		c-4.32-4.406-4.267-4.517,6.584-13.045l6.065-4.77l1.517,1.686c0.835,0.927,2.244,2.689,3.135,3.916l1.62,2.23L597.894,98.546z
		 M295.01,101.641c-0.724,0.755-1.371,1.373-1.436,1.373c-0.369,0-2.954-1.981-5.208-3.99c-1.424-1.269-4.523-3.751-6.887-5.515
		L277.18,90.3l2.767-3.503c1.522-1.927,2.915-3.559,3.096-3.627c0.331-0.125,12.428,9.438,14.682,11.607l1.21,1.165l-1.304,2.163
		C296.914,99.294,295.734,100.886,295.01,101.641z M405.101,91.744c-5.891,1.256-11.018,2.284-11.394,2.284
		c-1.438,0-5.231-2.316-6.231-3.806c-1.071-1.594-2.45-7.099-6.844-27.325c-2.623-12.071-2.949-15.448-1.722-17.792
		c1.849-3.532,3.471-4.105,24.77-8.747c13.813-3.01,15.053-3.124,17.934-1.649c3.896,1.995,3.902,2.013,9.366,27.391
		c1.806,8.387,3.278,15.913,3.272,16.724c-0.016,2.078-1.696,5.492-3.174,6.448C429.665,86.187,420.775,88.402,405.101,91.744z
		 M491.102,92.896c-3.086,1.728-6.397,1.419-20.443-1.907c-18.156-4.299-18.448-4.388-20.708-6.299
		c-3.332-2.816-3.466-4.261-1.289-14.072c2.794-12.593,7.356-30.589,8.129-32.067c1.028-1.962,3.547-3.846,5.669-4.24
		c2.343-0.435,5.725,0.133,19.658,3.299c16.123,3.664,17.442,4.106,19.572,6.564c2.532,2.921,2.704,4.901,1.063,12.174
		c-3.845,17.047-7.465,31.187-8.499,33.187C493.503,90.989,492.392,92.174,491.102,92.896z M443.606,31.627
		c-1.854,0.696-2.768,0.624-4.78-0.378c-1.027-0.511-1.896-1.39-2.098-2.121c-0.188-0.687-0.366-5.017-0.394-9.623l-0.051-8.375
		l1.297-0.487c0.714-0.268,2.633-0.487,4.267-0.487c4.368,0,4.546,0.388,4.546,9.862C446.395,28.557,445.86,30.781,443.606,31.627z
		 M528.796,402.046c-2.215,1.1-4.23,2.001-4.48,2.001c-0.647,0-8.161-16.325-8.161-17.733c0-1.339,1.72-2.715,5.272-4.221
		l2.358-0.997l3.318,6.857c1.825,3.771,3.858,8.034,4.518,9.475l1.2,2.619L528.796,402.046z M354.375,400.676
		c-0.832,0.754-1.681,1.354-1.885,1.333c-1.17-0.124-3.553-1.22-4.499-2.067c-2.15-1.931-1.964-2.957,1.855-10.272
		c4.927-9.436,4.308-8.847,7.899-7.537c3.783,1.376,4.229,1.747,4.229,3.528C361.976,387.657,356.245,398.98,354.375,400.676z
		 M419.856,397.24c-1.816,0.825-4.172,1.231-5.56,0.964c-5.087-0.983-27.057-5.937-29.825-6.726c-5.78-1.649-8.34-4.31-8.34-8.672
		c0-1.76,3.951-19.785,7.03-32.075c1.834-7.319,2.691-9.243,4.839-10.863c2.999-2.258,4.736-2.134,20.518,1.471
		c18.547,4.237,19.315,4.473,21.432,6.562c3.278,3.235,3.279,4.231,0.032,18.687C423.949,393.441,423.194,395.726,419.856,397.24z
		 M474.619,396.272c-5.47,1.255-10.588,2.258-11.375,2.23c-3.583-0.128-6.58-1.479-7.986-3.597
		c-0.992-1.496-6.219-22.934-9.355-38.377c-0.764-3.756-0.07-6.307,2.263-8.328c2.111-1.834,3.592-2.285,18.902-5.765
		c15.857-3.606,17.884-3.968,20.006-3.575c2.559,0.476,5.106,2.872,6.03,5.676c1.89,5.743,8.896,36.673,8.896,39.28
		c0,2.57-1.737,5.641-3.684,6.513C496.581,391.105,490.538,392.621,474.619,396.272z M539.029,371.374
		c-2.651,1.364-6.607,0.624-9.057-1.694c-1.376-1.304-15.284-18.441-21.075-25.971c-6.743-8.767-6.916-11.106-1.205-16.343
		c6.297-5.772,25.645-20.629,27.636-21.216c5.065-1.5,6.757-0.094,18.993,15.773c4.447,5.767,9.29,11.894,10.763,13.617
		c5.668,6.629,6.263,8.479,3.768,11.729C566.804,349.936,542.48,369.594,539.029,371.374z M346.094,370.15
		c-2.577,1.157-3.566,1.159-6.106,0.014c-2.255-1.015-6.052-3.918-18.769-14.359c-9.438-7.749-10.518-8.86-11.382-11.709
		c-1.06-3.497-0.042-5.462,8.285-16.007c13.297-16.836,16.694-20.613,19.683-21.883c1.974-0.839,3.286-1.061,5.296-0.896
		c2.539,0.208,2.857,0.4,6.351,3.848c2.023,1.997,7.586,6.54,12.363,10.096c4.776,3.558,9.483,7.341,10.46,8.407
		c2.851,3.115,3.088,7.403,0.605,10.932c-1.989,2.829-15.074,19.201-20.14,25.203C349.496,367.637,347.554,369.495,346.094,370.15z
		 M593.741,315.904c-2.505,1.172-3.188,1.021-10.104-2.221c-10.52-4.934-31.905-15.471-32.616-16.071
		c-3.527-2.977-3.937-6.396-1.443-12.047c3.509-7.957,13.496-27.644,14.778-29.132c1.618-1.879,4.309-2.874,6.716-2.489
		c2.117,0.34,7.268,2.643,23.687,10.594c6.95,3.367,13.582,6.801,14.735,7.634c2.397,1.728,3.465,4.178,3.073,7.06
		c-0.368,2.712-7.712,18.506-13.856,29.808C596.041,313.949,595.081,315.274,593.741,315.904z M293.039,312.993
		c-4.176,1.478-7.854,0.552-10.397-2.619c-2.469-3.079-15.147-30.088-15.563-33.157c-0.347-2.556,0.639-5.177,2.553-6.783
		c1.519-1.275,20.396-10.6,31.434-15.527c7.491-3.344,10.452-3.456,13.448-0.503c1.596,1.573,8.468,14.998,14.143,27.626
		c4.569,10.172,3.486,12.532-8.333,18.159c-3.363,1.6-10.437,4.98-15.719,7.509C299.32,310.228,294.116,312.612,293.039,312.993z
		 M639.194,266.102c-0.644,0.637-1.578,1.141-2.077,1.123c-1.777-0.063-12.785-2.513-14.53-3.233
		c-3.479-1.435-4.111-4.351-1.764-8.151c0.952-1.543,1.193-1.659,2.904-1.387c1.71,0.273,17.384,3.872,17.653,4.055
		c0.066,0.043-0.137,1.51-0.449,3.259C640.552,263.892,639.976,265.331,639.194,266.102z M251.891,262.785
		c-8.332,1.9-9.871,1.902-11.778,0.02c-1.184-1.17-1.478-1.895-1.478-3.65c0-1.203,0.285-2.548,0.632-2.989
		c0.396-0.503,4.007-1.575,9.676-2.877c10.174-2.336,9.89-2.377,10.857,1.587c0.866,3.55,0.734,5.273-0.453,5.901
		C258.783,261.075,255.428,261.977,251.891,262.785z M616.335,241.732c-2.698,0.571-8.958,0.591-29.918,0.088
		c-13.043-0.312-14.479-0.688-16.395-4.298c-1-1.883-1.044-2.738-1.044-20.436c0-18.117,0.022-18.51,1.119-20.541
		c0.785-1.448,1.796-2.391,3.364-3.141c2.198-1.052,2.644-1.069,23.144-0.927c19.914,0.14,20.983,0.194,22.669,1.156
		c1.048,0.599,2.232,1.914,2.907,3.227c1.115,2.173,1.137,2.555,1.135,19.708c-0.002,11.157-0.203,18.208-0.559,19.466
		C621.946,238.924,619.549,241.05,616.335,241.732z M303.859,239.75c-2.628,0.558-10.003,0.575-30.092,0.077
		c-12.192-0.303-13.255-0.554-15.618-3.682c-1.031-1.364-1.069-1.996-1.213-20.139c-0.144-17.972-0.108-18.814,0.877-20.807
		c0.565-1.143,1.866-2.638,2.893-3.325l1.866-1.249h21.016c20.343,0,21.08,0.034,23.031,1.045c1.414,0.731,2.395,1.772,3.286,3.48
		l1.27,2.436v17.487c0,13.152-0.164,17.945-0.662,19.335C309.583,236.999,306.976,239.091,303.859,239.75z M430.357,433.489
		c16.873,1.098,36.582-0.455,54.708-4.308c22.479-4.776,46.757-14.868,69.515-28.894c62.74-38.672,96.793-95.432,102.642-171.09
		c0.766-9.904,0.354-31.139-0.783-40.317c-4.608-37.247-18.649-71.271-42.13-102.092c-32.386-42.511-71.734-68.338-123.973-81.371
		c-8.489-2.118-9.743-2.309-14.146-2.148c-3.908,0.143-5.322,0.417-7.403,1.434l-2.57,1.257l-2.265-2.112
		c-3.614-3.373-5.227-3.64-22.864-3.792c-15.021-0.13-15.19-0.12-17.823,1.055c-2.473,1.104-5.683,3.968-5.683,5.071
		c0,0.817-1.004,0.538-2.722-0.756c-3.885-2.925-8.938-3.445-17.193-1.768c-47.365,9.625-91.517,35.287-121.063,70.365
		c-32.056,38.057-48.542,76.276-52.612,121.972c-0.712,7.999-0.726,30.071-0.023,38.314c4.381,51.445,23.984,94.562,60.583,133.255
		c18.574,19.637,42.013,35.824,67.316,46.487C379.066,425.514,404.479,431.806,430.357,433.489z"/>
</g>
</svg>
