<?xml version="1.0" encoding="utf-8"?>
<!-- Generator: Adobe Illustrator 15.1.0, SVG Export Plug-In . SVG Version: 6.00 Build 0)  -->
<!DOCTYPE svg PUBLIC "-//W3C//DTD SVG 1.1//EN" "http://www.w3.org/Graphics/SVG/1.1/DTD/svg11.dtd">
<svg version="1.1" xmlns="http://www.w3.org/2000/svg" xmlns:xlink="http://www.w3.org/1999/xlink" x="0px" y="0px"
	 width="1429.242px" height="575.335px" viewBox="255.694 278.601 1429.242 575.335"
	 enable-background="new 255.694 278.601 1429.242 575.335" xml:space="preserve">
<g id="Layer_2">
</g>
<g id="Layer_1">
	<g transform="matrix(1,0,0,1,0,0)">
		<path vector-effect="non-scaling-stroke" fill="#B0ADAF" stroke="#B0ADAF" stroke-width="0.25" stroke-linecap="round" d="
			M1101.853,346.74c112.421,0,203.608,91.252,203.608,203.659c0,112.443-91.188,203.588-203.608,203.588
			c-112.45,0-203.566-91.145-203.566-203.588C898.286,437.992,989.402,346.74,1101.853,346.74"/>
		<path vector-effect="non-scaling-stroke" fill="#FFFFFF" stroke="#B0ADAF" stroke-width="0.25" stroke-linecap="round" d="
			M1294.293,598.186l1.563-6.552l0,0c0.094-0.288,0.144-0.597,0.144-0.915c0-1.082-0.581-2.027-1.447-2.542l-16.841-4.096l0,0
			c-0.256-0.077-0.526-0.119-0.807-0.119c-1.257,0-2.319,0.833-2.665,1.977l-1.669,6.984l0,0c0.118,1.427,1.102,2.607,2.425,3.017
			l15.712,3.794l0,0c0.203,0.036,0.413,0.055,0.627,0.055c1.239,0,2.328-0.638,2.957-1.604L1294.293,598.186"/>
		<path vector-effect="non-scaling-stroke" fill="#FFFFFF" stroke="#B0ADAF" stroke-width="0.25" stroke-linecap="round" d="
			M1260.237,431.268l-4.111-5.349l0,0c-0.528-0.803-1.438-1.33-2.47-1.33c-0.365,0-0.714,0.065-1.037,0.187l-13.78,10.539l0,0
			c-0.728,0.503-1.205,1.344-1.205,2.297c0,0.582,0.179,1.123,0.483,1.571l4.38,5.672l0,0c0.555,0.377,1.224,0.598,1.944,0.598
			c0.711,0,1.373-0.215,1.923-0.584l12.815-9.85l0,0c0.752-0.645,1.229-1.602,1.229-2.671c0-0.377-0.06-0.741-0.17-1.082
			L1260.237,431.268"/>
		<path vector-effect="non-scaling-stroke" fill="#FFFFFF" stroke="#B0ADAF" stroke-width="0.25" stroke-linecap="round" d="
			M1225.073,534.911l0.82,33.034l0,0c0.719,3.56,3.527,6.36,7.092,7.066l38.837-0.724l0,0c4.319-0.454,7.685-4.107,7.685-8.547
			c0-0.082-0.002-0.164-0.004-0.246l-0.746-32.621l0,0c-0.512-3.752-3.506-6.714-7.272-7.176l-39.989,1.128l0,0
			c-3.613,0.96-6.296,4.2-6.417,8.086L1225.073,534.911"/>
		<path vector-effect="non-scaling-stroke" fill="#FFFFFF" stroke="#B0ADAF" stroke-width="0.25" stroke-linecap="round" d="
			M1207.166,484.54l14.682,29.621l0,0c1.638,2.24,4.284,3.695,7.271,3.695c0.724,0,1.426-0.085,2.101-0.246l34.95-16.935l0,0
			c2.508-1.502,4.185-4.246,4.185-7.381c0-1.362-0.317-2.651-0.881-3.795l-14.42-29.281l0,0c-1.477-2.309-4.063-3.838-7.007-3.838
			c-0.877,0-1.723,0.136-2.517,0.388l-35.901,17.663l0,0c-1.926,1.599-3.152,4.012-3.152,6.711c0,1.207,0.246,2.356,0.688,3.401
			L1207.166,484.54"/>
		<path vector-effect="non-scaling-stroke" fill="#FFFFFF" stroke="#B0ADAF" stroke-width="0.25" stroke-linecap="round" d="
			M1220.702,590.475l-13.925,29.979l0,0c-0.197,0.743-0.303,1.523-0.303,2.328c0,2.907,1.375,5.492,3.51,7.142l35.09,16.631l0,0
			c0.936,0.349,1.948,0.54,3.005,0.54c3.448,0,6.422-2.03,7.792-4.96l13.82-29.585l0,0c0.278-0.831,0.428-1.721,0.428-2.646
			c0-2.899-1.48-5.454-3.728-6.946l-36.271-16.927l0,0c-0.557-0.11-1.133-0.17-1.723-0.17c-3.332,0-6.229,1.867-7.7,4.611
			L1220.702,590.475"/>
		<path vector-effect="non-scaling-stroke" fill="#FFFFFF" stroke="#B0ADAF" stroke-width="0.25" stroke-linecap="round" d="
			M1184.817,729.412l6.164-2.714l0,0c1.146-0.414,1.967-1.512,1.967-2.802c0-0.114-0.006-0.228-0.019-0.339l-7.068-15.846l0,0
			c-0.389-1.047-1.396-1.791-2.578-1.791c-0.339,0-0.664,0.062-0.965,0.174l-6.587,2.855l0,0c-0.699,0.642-1.137,1.562-1.137,2.584
			c0,0.427,0.075,0.834,0.215,1.212l6.588,14.794l0,0c0.589,1.121,1.765,1.886,3.118,1.886c0.103,0,0.204-0.005,0.304-0.014
			H1184.817"/>
		<path vector-effect="non-scaling-stroke" fill="#FFFFFF" stroke="#B0ADAF" stroke-width="0.25" stroke-linecap="round" d="
			M1191.932,636.986l-25.214,21.362l0,0c-1.314,1.563-2.105,3.58-2.105,5.782c0,1.487,0.362,2.891,1.002,4.128l24.791,29.877l0,0
			c1.557,1.582,3.724,2.563,6.12,2.563c2.115,0,4.052-0.765,5.548-2.033l24.994-20.998l0,0c1.423-1.493,2.297-3.515,2.297-5.739
			c0-1.607-0.456-3.107-1.245-4.379l-25.741-30.62l0,0c-1.449-1.071-3.242-1.703-5.184-1.703
			C1195.219,635.226,1193.396,635.882,1191.932,636.986L1191.932,636.986"/>
		<path vector-effect="non-scaling-stroke" fill="#FFFFFF" stroke="#B0ADAF" stroke-width="0.25" stroke-linecap="round" d="
			M1166.573,446.374l26.309,19.986l0,0c1.241,0.646,2.652,1.009,4.148,1.009c2.2,0,4.217-0.788,5.782-2.097l23.758-30.714l0,0
			c0.867-1.343,1.369-2.943,1.369-4.66c0-2.793-1.33-5.274-3.393-6.847l-25.948-19.792l0,0c-1.25-0.751-2.713-1.184-4.277-1.184
			c-2.256,0-4.301,0.898-5.799,2.356l-24.269,31.796l0,0c-0.475,1.075-0.737,2.264-0.737,3.515c0,2.655,1.187,5.032,3.06,6.631
			H1166.573"/>
		<path vector-effect="non-scaling-stroke" fill="#FFFFFF" stroke="#B0ADAF" stroke-width="0.25" stroke-linecap="round" d="
			M1114.935,428.445l32.292,7.041l0,0c0.127,0.006,0.254,0.008,0.382,0.008c3.607,0,6.721-2.116,8.164-5.177l8.583-37.901l0,0
			c0.052-0.382,0.079-0.771,0.079-1.168c0-4.11-2.893-7.545-6.753-8.381l-31.86-7.083l0,0c-0.282-0.029-0.568-0.044-0.858-0.044
			c-3.563,0-6.604,2.234-7.802,5.377l-8.599,39.083l0,0c0.066,3.936,2.741,7.235,6.369,8.248L1114.935,428.445"/>
		<path vector-effect="non-scaling-stroke" fill="#FFFFFF" stroke="#B0ADAF" stroke-width="0.25" stroke-linecap="round" d="
			M1145.829,668.292l-32.061,7.905l0,0c-3.152,1.387-5.354,4.537-5.354,8.202c0,0.063,0,0.125,0.001,0.188l8.845,37.782l0,0
			c1.128,3.423,4.351,5.893,8.15,5.893c0.709,0,1.398-0.085,2.058-0.248l31.702-7.681l0,0c3.197-1.163,5.48-4.229,5.48-7.828
			c0-0.243-0.011-0.484-0.031-0.724l-9.438-38.89l0,0c-1.445-2.816-4.379-4.743-7.763-4.743c-0.545,0-1.077,0.049-1.596,0.146
			L1145.829,668.292"/>
		<path vector-effect="non-scaling-stroke" fill="#FFFFFF" stroke="#B0ADAF" stroke-width="0.25" stroke-linecap="round" d="
			M1106.432,353.407l-6.746,0.08l0,0c-0.079-0.007-0.158-0.01-0.238-0.01c-1.308,0-2.417,0.857-2.794,2.039l-0.028,17.367l0,0
			c-0.003,0.05-0.004,0.101-0.004,0.152c0,1.481,1.157,2.692,2.617,2.778l7.193-0.014l0,0c1.302-0.444,2.255-1.642,2.338-3.074
			l0.06-16.171l0,0c-0.097-1.461-1.069-2.683-2.397-3.144V353.407"/>
		<path vector-effect="non-scaling-stroke" fill="#FFFFFF" stroke="#B0ADAF" stroke-width="0.25" stroke-linecap="round" d="
			M1059.746,436.322l32.047-8.086l0,0c3.146-1.399,5.337-4.552,5.337-8.216c0-0.075-0.001-0.15-0.003-0.225l-9.171-37.733l0,0
			c-1.146-3.394-4.355-5.839-8.137-5.839c-0.719,0-1.418,0.089-2.085,0.255l-31.639,7.888l0,0c-3.177,1.171-5.441,4.224-5.441,7.806
			c0,0.264,0.013,0.524,0.037,0.781l9.681,38.811l0,0c1.454,2.797,4.378,4.707,7.748,4.707c0.558,0,1.104-0.052,1.631-0.152
			L1059.746,436.322"/>
		<path vector-effect="non-scaling-stroke" fill="#FFFFFF" stroke="#B0ADAF" stroke-width="0.25" stroke-linecap="round" d="
			M1089.85,673.691l-32.32-6.94l0,0c-0.122-0.005-0.245-0.008-0.368-0.008c-3.615,0-6.731,2.131-8.163,5.206l-8.497,37.894l0,0
			c-0.051,0.378-0.076,0.762-0.076,1.152c0,4.136,2.913,7.589,6.8,8.42l31.876,6.931l0,0c0.281,0.028,0.567,0.043,0.856,0.043
			c3.56,0,6.598-2.231,7.79-5.371l8.489-39.111l0,0c-0.083-3.925-2.759-7.212-6.384-8.217L1089.85,673.691"/>
		<path vector-effect="non-scaling-stroke" fill="#FFFFFF" stroke="#B0ADAF" stroke-width="0.25" stroke-linecap="round" d="
			M1013.774,725.2l5.919,3.219l0,0c0.463,0.299,1.014,0.472,1.604,0.472c0.796,0,1.518-0.313,2.051-0.821l8.324-15.23l0,0
			c0.271-0.431,0.428-0.939,0.428-1.484c0-1.004-0.531-1.884-1.327-2.375l-6.292-3.413l0,0c-0.199-0.036-0.404-0.054-0.613-0.054
			c-1.243,0-2.333,0.655-2.942,1.639l-7.734,14.197l0,0c-0.21,0.451-0.327,0.954-0.327,1.484c0,0.91,0.346,1.74,0.913,2.366
			L1013.774,725.2"/>
		<path vector-effect="non-scaling-stroke" fill="#FFFFFF" stroke="#B0ADAF" stroke-width="0.25" stroke-linecap="round" d="
			M1014.458,463.927l25.755-20.743l0,0c1.395-1.59,2.239-3.673,2.239-5.954c0-1.416-0.326-2.756-0.906-3.948l-24.113-30.438l0,0
			c-1.568-1.659-3.788-2.694-6.25-2.694c-2.042,0-3.918,0.712-5.394,1.902l-25.459,20.383l0,0c-1.509,1.506-2.443,3.589-2.443,5.889
			c0,1.537,0.417,2.978,1.144,4.212l25.061,31.162l0,0c1.473,1.148,3.323,1.831,5.336,1.831c1.875,0,3.61-0.594,5.03-1.604
			L1014.458,463.927"/>
		<path vector-effect="non-scaling-stroke" fill="#FFFFFF" stroke="#B0ADAF" stroke-width="0.25" stroke-linecap="round" d="
			M1036.887,656.347l-25.862-20.62l0,0c-1.285-0.706-2.76-1.107-4.329-1.107c-2.121,0-4.072,0.734-5.611,1.962l-24.469,30.17l0,0
			c-0.926,1.37-1.467,3.023-1.467,4.803c0,2.711,1.256,5.129,3.218,6.703l25.465,20.419l0,0c1.288,0.819,2.817,1.295,4.458,1.295
			c2.183,0,4.168-0.841,5.652-2.217l24.99-31.233l0,0c0.529-1.126,0.827-2.383,0.827-3.71c0-2.565-1.109-4.871-2.873-6.466
			L1036.887,656.347"/>
		<path vector-effect="non-scaling-stroke" fill="#FFFFFF" stroke="#B0ADAF" stroke-width="0.25" stroke-linecap="round" d="
			M950.119,423.809l-4.09,5.364l0,0c-0.464,0.522-0.745,1.211-0.745,1.966c0,0.634,0.199,1.222,0.539,1.705l13.764,10.592l0,0
			c0.487,0.415,1.118,0.665,1.808,0.665c0.847,0,1.605-0.378,2.118-0.974l4.354-5.696l0,0c0.124-0.356,0.191-0.739,0.191-1.138
			c0-1.047-0.462-1.983-1.193-2.62l-12.814-9.864l0,0c-0.563-0.376-1.238-0.595-1.967-0.595
			C951.357,423.214,950.682,423.433,950.119,423.809L950.119,423.809"/>
		<path vector-effect="non-scaling-stroke" fill="#FFFFFF" stroke="#B0ADAF" stroke-width="0.25" stroke-linecap="round" d="
			M986.019,511.843l13.824-30.009l0,0c0.192-0.734,0.296-1.506,0.296-2.3c0-2.931-1.398-5.534-3.564-7.182l-35.101-16.504l0,0
			c-0.93-0.343-1.935-0.531-2.982-0.531c-3.469,0-6.459,2.053-7.82,5.01l-13.678,29.606l0,0c-0.277,0.828-0.428,1.715-0.428,2.637
			c0,2.893,1.48,5.438,3.725,6.922l36.312,16.801l0,0c0.559,0.112,1.137,0.172,1.729,0.172c3.333,0,6.229-1.871,7.694-4.62
			L986.019,511.843"/>
		<path vector-effect="non-scaling-stroke" fill="#FFFFFF" stroke="#B0ADAF" stroke-width="0.25" stroke-linecap="round" d="
			M999.39,618.331l-14.848-29.541l0,0c-1.639-2.209-4.267-3.641-7.229-3.641c-0.749,0-1.477,0.091-2.171,0.264l-34.845,17.093l0,0
			c-2.494,1.507-4.163,4.245-4.163,7.373c0,1.396,0.333,2.717,0.924,3.884l14.595,29.164l0,0c1.48,2.279,4.049,3.788,6.97,3.788
			c0.889,0,1.743-0.14,2.545-0.397l35.823-17.855l0,0c1.9-1.604,3.107-4.002,3.107-6.683c0-1.226-0.252-2.393-0.708-3.452
			L999.39,618.331"/>
		<path vector-effect="non-scaling-stroke" fill="#FFFFFF" stroke="#B0ADAF" stroke-width="0.25" stroke-linecap="round" d="
			M979.719,566.167l-0.145-33.076l0,0c-0.635-3.57-3.374-6.412-6.889-7.198l-38.816-0.132l0,0c-4.396,0.356-7.853,4.037-7.853,8.524
			c0,0.016,0.001,0.029,0.001,0.043l0.004,32.603l0,0c0.42,3.741,3.325,6.73,7.025,7.281l40.012-0.054l0,0
			c3.674-0.887,6.44-4.099,6.657-7.991H979.719"/>
		<path vector-effect="non-scaling-stroke" fill="#FFFFFF" stroke="#B0ADAF" stroke-width="0.25" stroke-linecap="round" d="
			M907.617,590.878l1.678,6.501l0,0c0.256,1.334,1.4,2.351,2.794,2.411l16.769-4.484l0,0c1.26-0.257,2.208-1.372,2.208-2.708
			c0-0.198-0.021-0.392-0.062-0.578l-1.844-6.917l0,0c-0.62-0.944-1.688-1.567-2.901-1.567c-0.24,0-0.475,0.024-0.7,0.07
			l-15.586,4.255l0,0C908.679,588.293,907.726,589.467,907.617,590.878L907.617,590.878"/>
		<path vector-effect="non-scaling-stroke" fill="#FFFFFF" stroke="#B0ADAF" stroke-width="0.25" stroke-linecap="round" d="
			M1101.866,547.281c-1.648,0-2.959,1.347-2.959,2.988c0,1.634,1.311,2.966,2.959,2.966c1.635,0,2.967-1.332,2.967-2.966
			C1104.833,548.628,1103.501,547.281,1101.866,547.281"/>
	</g>
	<path vector-effect="non-scaling-stroke" stroke="#000000" stroke-width="1.944" stroke-linecap="round" d="M369.577,633.341
		L369.577,633.341c-13.441-6.555-22.744-20.274-22.936-36.184l-0.024-49.539l-0.094-0.835l0,0c-0.003-0.173-0.004-0.343-0.004-0.514
		c0-12.708,7.676-23.623,18.641-28.358l0.148-13.406l0.15-7.546l-0.193-4.039l0.252-31.81l3.081-29.628h-3.218l-0.93,1.951
		l-0.144,0.619c0,1.065-1.865,2.656-2.455,3.484c-8.359,11.981-22.313,19.289-36.922,19.289c-24.818,0-44.949-20.131-44.949-44.949
		l0.237-5.76c-0.007-3.658,1.26-7.64,2.607-10.988c6.66-16.545,24.35-28.216,42.12-28.216l2.851,0.086
		c21.211,0.007,41.997,20.723,41.997,41.977l3.075-0.015l6.639-24.891l0.259-0.792l0.08-0.864l0,0
		c1.125-7.475,5.646-13.83,11.941-17.445l0.751-0.432l6.424-1.325l28.836-4.09l29.088-1.188l14.212,0.475l31.485,14.782l1.88,0.619
		l0,0c32.886,10.463,67.92,16.109,104.272,16.109c36.842,0,72.329-5.799,105.598-16.533l0.564-0.238l17.222-7.006l5.947-0.094l0,0
		c0.534-0.004,1.059-0.006,1.585-0.006c22.227,0,43.716,3.156,63.99,9.027l0.759,0.137l0,0
		c13.922,2.301,25.136,12.593,28.774,25.995l0.184,0.659l1.087,86.948l-5.263,41.162l0,0c8.183,5.292,13.78,14.239,14.477,24.523
		l-3.332,52.192l0,0c-0.993,15.984-11.239,29.455-25.437,35.119l-1.938,14.985l-21.844,74.333l-1.044,1.749l0,0
		c-5.551,9.173-15.318,15.507-26.605,16.314l-7.904,0.664l0,0c-48.786,4.082-97.662,6.144-147.021,6.144
		c-57.274,0-113.9-2.775-169.249-8.154l-6.457-0.791l-0.792,0.015l0,0c-0.143,0.002-0.284,0.002-0.427,0.002
		c-20.378,0-37.457-14.125-41.976-33.107l-0.142-0.749l-19.311-72.713L369.577,633.341"/>
	<path vector-effect="non-scaling-stroke" fill="#525152" stroke="#525152" stroke-width="1.944" stroke-linecap="round" d="
		M343.78,428.084v-12.441h41.054v12.441H343.78"/>
	<path vector-effect="non-scaling-stroke" fill="#E50404" stroke="#FB5050" stroke-width="1.944" stroke-linecap="round" d="
		M816.664,687.909l-21.585,73.368l0,0c-4.64,8.506-13.425,14.423-23.634,15.036l-0.004-0.01
		c-51.139,4.506-102.423,6.784-154.239,6.784c-59.678,0-118.649-3.022-176.263-8.873l0.756-0.064
		c-0.469,0.017-0.935,0.025-1.403,0.025c-18.285,0-33.564-12.872-37.268-30.038l-19.202-72.343l0,0
		c-3.291-37.671-4.955-75.441-4.955-113.602c0-9.953,0.113-19.879,0.335-29.637l-0.023,0.456c-0.33-5.926-0.495-11.824-0.495-17.763
		c0-33.103,5.134-65.006,14.63-94.89l0.056,0.152c0.559-6.468,4.307-12.018,9.66-15.07h0.002c19.401-4.13,39.439-6.295,59.982-6.295
		c5.266,0,10.499,0.143,15.633,0.42l30.737,14.472l0,0c34.015,11.077,70.328,17.065,108.039,17.065
		c37.728,0,74.056-5.993,108.084-17.079l16.3-6.718l0,0c2.196-0.063,4.373-0.095,6.555-0.095c21.864,0,42.999,3.122,62.93,8.93
		l-0.084,0.043c12.458,1.62,22.576,10.661,25.776,22.53l1.072,85.958L816.664,687.909"/>
	<path vector-effect="non-scaling-stroke" fill="#E50404" stroke="#840202" stroke-width="1.944" stroke-linecap="round" d="
		M374.322,519.567L374.322,519.567c44.296-1.427,88.183-2.137,132.233-2.137c104.435,0,207.938,3.987,309.32,11.739l-0.87,0.211
		c12.13,2,21.503,12.15,22.309,24.627l-3.293,50.39l0,0c-0.545,16.672-12.587,30.431-28.441,33.604l-0.014,0.013
		c-62.456,8.491-125.77,12.848-190.102,12.848c-81.851,0-162.054-7.051-239.6-20.503l0.855-0.1
		c-15.086-4.103-26.203-17.814-26.374-34.147l-0.079-49.653l0,0c-0.017-0.375-0.024-0.747-0.024-1.121
		c0-13.678,10.629-24.874,24.072-25.776L374.322,519.567"/>
	<path vector-effect="non-scaling-stroke" fill="#E0A729" stroke="#E0A729" stroke-width="1.944" stroke-linecap="round" d="
		M365.776,412.089c0,22.043-17.868,39.913-39.91,39.913c-22.041,0-39.909-17.87-39.909-39.913s17.868-39.913,39.909-39.913
		C347.908,372.176,365.776,390.046,365.776,412.089"/>
	<path vector-effect="non-scaling-stroke" stroke="#000000" stroke-width="1.944" stroke-linecap="round" d="M361.687,543.118
		l-0.043,0.749l0.021,49.284l0,0c0.216,9.622,6.453,17.759,15.095,20.786l1.191,0.382l4.515,0.763l0,0
		c75.412,12.748,152.9,19.387,231.939,19.387c59.346,0,117.818-3.742,175.193-11.004l11.85-1.586l1.202-0.295l0,0
		c8.675-2.417,15.217-9.952,16.168-19.146l3.647-51.925l0.057,2.001l0,0c-0.268-6.303-4.684-11.53-10.588-13.024l-24.915-1.765l0,0
		c-92.672-6.639-186.247-10.016-280.611-10.016c-35.763,0-71.412,0.485-106.941,1.449l0.726-0.138
		c-5.121,0.091-10.179,0.137-15.248,0.137c-1.107,0-2.216-0.002-3.305-0.007l-8.059-0.015l0,0
		c-6.674,0.445-11.948,6.001-11.948,12.786c0,0.405,0.019,0.806,0.055,1.2L361.687,543.118"/>
	<path vector-effect="non-scaling-stroke" fill="#FFFFFF" stroke="#000000" stroke-width="1.944" stroke-linecap="round" d="
		M412.079,595.289l-0.064-43.43c0-7.317,5.932-13.248,13.248-13.248l53.784,0.064c7.28,0,13.183,5.902,13.183,13.184l0.021,43.43
		c0,7.293-5.911,13.205-13.204,13.205l-53.784-0.021C417.981,608.474,412.079,602.57,412.079,595.289"/>
	<path vector-effect="non-scaling-stroke" fill="#FFFFFF" stroke="#000000" stroke-width="1.944" stroke-linecap="round" d="
		M693.498,602.015l-0.007-44.481c0-7.281,5.902-13.184,13.184-13.184l53.266-0.008c7.285,0,13.19,5.906,13.19,13.191l0.007,44.481
		c0,7.288-5.908,13.197-13.197,13.197l-53.266-0.021C699.397,615.19,693.498,609.291,693.498,602.015"/>
	<g transform="matrix(1,0,0,1,0,0)" display="none">
		
			<path vector-effect="non-scaling-stroke" display="inline" fill="#F0FFFA" stroke="#F0FFFA" stroke-width="0.25" stroke-linecap="round" d="
			M1635.88,278.726l48.931,43.769v178.747h-68.041h-67.709V322.495l48.629-43.769H1635.88"/>
		
			<path vector-effect="non-scaling-stroke" display="inline" fill="#F0FFFA" stroke="#F0FFFA" stroke-width="0.25" stroke-linecap="round" d="
			M1616.93,291.766c3.971,0,7.2,3.225,7.2,7.192c0,3.975-3.229,7.193-7.2,7.193c-3.97,0-7.189-3.218-7.189-7.193
			C1609.74,294.991,1612.96,291.766,1616.93,291.766"/>
	</g>
	<path vector-effect="non-scaling-stroke" fill="#E50404" stroke="#780202" stroke-width="0.25" stroke-linecap="round" d="
		M648.943,500.974"/>
	<path vector-effect="non-scaling-stroke" fill="#E50404" stroke="#780202" stroke-width="0.25" stroke-linecap="round" d="
		M648.943,500.974"/>
	<g>
		<path vector-effect="non-scaling-stroke" fill="#E50404" stroke="#780202" stroke-width="0.25" stroke-linecap="round" d="
			M410.644,477.974l9.072,26.128l8.705-26.128h3.629l-10.895,31.563h-3.981l-10.894-31.563H410.644"/>
		<path vector-effect="non-scaling-stroke" fill="#E50404" stroke="#780202" stroke-width="0.25" stroke-linecap="round" d="
			M449.519,477.974v31.563h-4.35v-31.563H449.519"/>
		<path vector-effect="non-scaling-stroke" fill="#E50404" stroke="#780202" stroke-width="0.25" stroke-linecap="round" d="
			M485.973,477.974v3.628h-15.97v9.8h12.7v3.268h-12.7v11.247h16.696v3.621h-21.053v-31.563H485.973"/>
		<path vector-effect="non-scaling-stroke" fill="#E50404" stroke="#780202" stroke-width="0.25" stroke-linecap="round" d="
			M501.441,477.974l6.171,25.4l6.53-25.4h3.629l6.897,25.768l5.804-25.768h3.629l-7.258,31.563h-4.356l-6.53-23.939l-6.53,23.939
			h-4.356l-7.977-31.563H501.441"/>
		<path vector-effect="non-scaling-stroke" fill="#E50404" stroke="#780202" stroke-width="0.25" stroke-linecap="round" d="
			M555.025,477.974l9.799,25.041l9.072-25.041h6.17v31.563h-4.356v-27.216l-9.799,27.216h-2.901l-10.52-27.216v27.216h-3.269
			v-31.563H555.025"/>
		<path vector-effect="non-scaling-stroke" fill="#E50404" stroke="#780202" stroke-width="0.25" stroke-linecap="round" d="
			M687.581,494.303c5.804,5.082,2.182,15.963-7.978,15.963c-5.443,0.366-11.981-1.448-14.155-9.433l3.636-0.728
			c2.534,6.538,9.065,6.897,13.062,5.811c3.607-0.727,5.076-6.171,2.174-8.345c-4.355-3.629-13.435-2.182-16.344-7.258
			c-3.622-6.53,2.196-13.429,9.813-13.068c3.269,0,9.792,1.815,11.246,7.625l-3.282,1.087c-1.808-4.355-6.531-5.083-6.531-5.083
			c-3.621-0.727-8.337,1.447-8.337,4.724C670.531,491.401,683.232,490.673,687.581,494.303"/>
		<path vector-effect="non-scaling-stroke" fill="#E50404" stroke="#780202" stroke-width="0.25" stroke-linecap="round" d="
			M722.654,477.974v3.628h-9.064v27.936h-3.996v-27.936h-9.064v-3.628H722.654"/>
		<path vector-effect="non-scaling-stroke" fill="#E50404" stroke="#780202" stroke-width="0.25" stroke-linecap="round" d="
			M755.108,477.974v3.628h-15.97v9.8h12.708v3.268h-12.708v11.247h16.696v3.621h-21.053v-31.563H755.108"/>
		<g>
			<path vector-effect="non-scaling-stroke" fill="#E50404" stroke="#780202" stroke-width="0.25" stroke-linecap="round" d="
				M781.944,477.974c13.062,0,13.062,14.515,4.716,16.695l6.53,14.868h-4.356l-5.803-13.78h-8.712v13.78h-4.355v-31.563H781.944"/>
			<path vector-effect="non-scaling-stroke" fill="#E50404" stroke="#780202" stroke-width="0.25" stroke-linecap="round" d="
				M782.305,481.234h-7.985v11.254h7.25C790.289,492.855,791.01,481.234,782.305,481.234"/>
		</g>
		<path vector-effect="non-scaling-stroke" fill="#E50404" stroke="#780202" stroke-width="0.25" stroke-linecap="round" d="
			M650.111,478.156l0.083,27.704l-14.66-28.038h-5.993v31.563h4.231v-26.441l14.826,26.775h4.653l-0.002-31.563H650.111"/>
		<g>
			
				<ellipse fill="#E50404" stroke="#780202" stroke-width="0.25" stroke-linecap="round" cx="604.289" cy="493.771" rx="13.499" ry="16.539"/>
			
				<ellipse fill="#E50404" stroke="#780202" stroke-width="0.25" stroke-linecap="round" cx="604.288" cy="493.771" rx="9.726" ry="12.396"/>
		</g>
	</g>
	<g>
		<path vector-effect="non-scaling-stroke" fill="#E50404" stroke="#780202" stroke-width="0.25" stroke-linecap="round" d="
			M410.644,477.974l9.072,26.128l8.705-26.128h3.629l-10.895,31.563h-3.981l-10.894-31.563H410.644"/>
		<path vector-effect="non-scaling-stroke" fill="#E50404" stroke="#780202" stroke-width="0.25" stroke-linecap="round" d="
			M449.519,477.974v31.563h-4.35v-31.563H449.519"/>
		<path vector-effect="non-scaling-stroke" fill="#E50404" stroke="#780202" stroke-width="0.25" stroke-linecap="round" d="
			M485.973,477.974v3.628h-15.97v9.8h12.7v3.268h-12.7v11.247h16.696v3.621h-21.053v-31.563H485.973"/>
		<path vector-effect="non-scaling-stroke" fill="#E50404" stroke="#780202" stroke-width="0.25" stroke-linecap="round" d="
			M501.441,477.974l6.171,25.4l6.53-25.4h3.629l6.897,25.768l5.804-25.768h3.629l-7.258,31.563h-4.356l-6.53-23.939l-6.53,23.939
			h-4.356l-7.977-31.563H501.441"/>
		<path vector-effect="non-scaling-stroke" fill="#E50404" stroke="#780202" stroke-width="0.25" stroke-linecap="round" d="
			M555.025,477.974l9.799,25.041l9.072-25.041h6.17v31.563h-4.356v-27.216l-9.799,27.216h-2.901l-10.52-27.216v27.216h-3.269
			v-31.563H555.025"/>
		<path vector-effect="non-scaling-stroke" fill="#E50404" stroke="#780202" stroke-width="0.25" stroke-linecap="round" d="
			M687.581,494.303c5.804,5.082,2.182,15.963-7.978,15.963c-5.443,0.366-11.981-1.448-14.155-9.433l3.636-0.728
			c2.534,6.538,9.065,6.897,13.062,5.811c3.607-0.727,5.076-6.171,2.174-8.345c-4.355-3.629-13.435-2.182-16.344-7.258
			c-3.622-6.53,2.196-13.429,9.813-13.068c3.269,0,9.792,1.815,11.246,7.625l-3.282,1.087c-1.808-4.355-6.531-5.083-6.531-5.083
			c-3.621-0.727-8.337,1.447-8.337,4.724C670.531,491.401,683.232,490.673,687.581,494.303"/>
		<path vector-effect="non-scaling-stroke" fill="#E50404" stroke="#780202" stroke-width="0.25" stroke-linecap="round" d="
			M722.654,477.974v3.628h-9.064v27.936h-3.996v-27.936h-9.064v-3.628H722.654"/>
		<path vector-effect="non-scaling-stroke" fill="#E50404" stroke="#780202" stroke-width="0.25" stroke-linecap="round" d="
			M755.108,477.974v3.628h-15.97v9.8h12.708v3.268h-12.708v11.247h16.696v3.621h-21.053v-31.563H755.108"/>
		<g>
			<path vector-effect="non-scaling-stroke" fill="#E50404" stroke="#780202" stroke-width="0.25" stroke-linecap="round" d="
				M781.944,477.974c13.062,0,13.062,14.515,4.716,16.695l6.53,14.868h-4.356l-5.803-13.78h-8.712v13.78h-4.355v-31.563H781.944"/>
			<path vector-effect="non-scaling-stroke" fill="#E50404" stroke="#780202" stroke-width="0.25" stroke-linecap="round" d="
				M782.305,481.234h-7.985v11.254h7.25C790.289,492.855,791.01,481.234,782.305,481.234"/>
		</g>
		<path vector-effect="non-scaling-stroke" fill="#E50404" stroke="#780202" stroke-width="0.25" stroke-linecap="round" d="
			M650.111,478.156l0.083,27.704l-14.66-28.038h-5.993v31.563h4.231v-26.441l14.826,26.775h4.653l-0.002-31.563H650.111"/>
		<g>
			
				<ellipse fill="#E50404" stroke="#780202" stroke-width="0.25" stroke-linecap="round" cx="604.289" cy="493.771" rx="13.499" ry="16.539"/>
			
				<ellipse fill="#E50404" stroke="#780202" stroke-width="0.25" stroke-linecap="round" cx="604.288" cy="493.771" rx="9.726" ry="12.396"/>
		</g>
	</g>
</g>
</svg>
