<?xml version="1.0" encoding="ISO-8859-1" standalone="no"?>
<!-- Created with Make The Cut! -->
<!DOCTYPE svg PUBLIC "-//W3C//DTD SVG 1.1//EN" "http://www.w3.org/Graphics/SVG/1.1/DTD/svg11.dtd">
<svg mtc:dpi="90" xmlns="http://www.w3.org/2000/svg" version="1.1" width="12.2369in" height="6.02541in" viewBox="0 0 1101.318481 542.287" xmlns:inkscape="http://www.inkscape.org/namespaces/inkscape" xmlns:xlink="http://www.w3.org/1999/xlink" xmlns:mtc="http://www.make-the-cut.com/namespaces/make-the-cut">
	<g inkscape:groupmode="layer" label="Clipboard Trace" id="Clipboard Trace">
		<path label="Trace Path &#40;1&#41; &#40;J&#41; &#40;1&#41; &#40;J&#41;" id="Trace Path &#40;1&#41; &#40;J&#41; &#40;1&#41; &#40;J&#41;" fill="none" stroke="black"  stroke-linejoin="round" d="M271.038,281.686 C264.798,284.647 256.41,281.042 253.526,274.159 C251.25,268.728 253.574,260.572 258.285,257.454 C263.167,254.223 269.549,254.762 274.35,258.81 C281.519,264.855 279.676,277.587 271.038,281.686 z M444.514,216.756 C437.173,220.21 430.05,223.168 428.684,223.331 C425.623,223.695 422.527,222.967 420.379,221.379 C417.749,219.433 399.876,182.582 399.35,178.02 C399.03,175.245 400.126,172.506 402.462,170.243 C404.767,168.01 445.382,148.449 450.101,147.3 C453.009,146.591 456.298,147.539 458.293,149.661 C460.12,151.604 464.005,159.229 472.68,177.901 C479.029,191.565 479.737,194.372 477.785,198.123 C475.903,201.742 473.128,203.296 444.514,216.756 z M110.527,220.907 C107.374,222.538 103.903,222.066 97.4914,219.138 C87.0954,214.39 84.3797,213.108 71.7246,206.983 C61.3272,201.95 58.9306,200.534 57.0066,198.286 C54.569,195.438 53.595,191.894 54.2095,188.107 C54.3881,187.006 58.5707,177.868 63.5041,167.801 C73.1196,148.179 74.6443,145.979 79.2246,145.12 C80.4775,144.885 82.5452,145.021 83.901,145.427 C89.3064,147.047 125.863,164.789 129.618,167.615 C130.728,168.451 132.088,170.008 132.64,171.076 C134.694,175.048 133.688,177.867 120.172,206.008 C114.959,216.861 113.252,219.498 110.527,220.907 z M390.68,158.281 C387.79,159.521 386.132,159.351 382.367,157.431 C379.319,155.876 354.159,135.733 349.72,131.293 C345.482,127.056 344.804,122.701 347.629,117.855 C349.376,114.859 373.031,85.2398 377.048,81.0188 C379.468,78.4763 383.046,76.5679 385.359,76.5861 C388.212,76.6086 391.633,78.5536 400.127,84.9822 C421.212,100.94 428.136,108.382 426.843,113.698 C426.213,116.285 424.243,118.993 410.081,136.735 C395.727,154.718 393.677,156.995 390.68,158.281 z M149.948,156.737 C145.745,158.653 142.188,157.987 138.58,154.606 C137.791,153.867 131.248,145.574 124.04,136.179 C116.833,126.784 110.076,118.173 109.025,117.045 C107.349,115.245 107.114,114.553 107.114,111.412 C107.114,106.708 108.828,104.12 115.963,98.0512 C126.465,89.1197 143.14,76.5533 145.292,75.9484 C152.605,73.8934 154.541,75.6378 176.428,104.012 C185.888,116.276 187.489,118.887 187.499,122.076 C187.509,125.211 186.399,127.156 182.433,130.956 C174.777,138.29 153.673,155.039 149.948,156.737 z M459.85,122.542 C455,126.418 450.537,130.001 449.932,130.505 C448.927,131.34 448.533,131.113 445.431,127.91 C440.124,122.431 440.192,122.294 453.515,111.688 L460.965,105.757 L462.827,107.853 C463.852,109.006 465.585,111.197 466.679,112.722 L468.668,115.496 L459.85,122.542 z M87.8841,126.391 C86.9946,127.33 86.2007,128.098 86.1197,128.098 C85.6669,128.098 82.4925,125.635 79.7243,123.136 C77.9761,121.558 74.17,118.472 71.2663,116.278 L65.9869,112.289 L69.3851,107.933 C71.2541,105.537 72.965,103.507 73.1871,103.422 C73.5936,103.266 88.4493,115.158 91.2176,117.855 L92.7037,119.304 L91.1025,121.994 C90.2218,123.473 88.7735,125.452 87.8841,126.391 z M223.084,114.084 C215.849,115.646 209.553,116.924 209.092,116.924 C207.326,116.924 202.668,114.044 201.439,112.191 C200.123,110.209 198.43,103.363 193.034,78.2125 C189.814,63.2025 189.412,59.0031 190.92,56.0876 C193.191,51.6956 195.183,50.9834 221.339,45.2113 C238.302,41.468 239.825,41.3262 243.363,43.1606 C248.147,45.6409 248.155,45.664 254.865,77.2211 C257.083,87.6502 258.891,97.0087 258.884,98.0176 C258.864,100.602 256.801,104.847 254.986,106.036 C253.25,107.174 242.333,109.928 223.084,114.084 z M328.7,115.517 C324.91,117.665 320.842,117.281 303.594,113.145 C281.297,107.799 280.938,107.688 278.162,105.312 C274.07,101.81 273.907,100.013 276.58,87.8133 C280.01,72.1538 285.613,49.7753 286.563,47.9371 C287.825,45.4973 290.918,43.155 293.525,42.6651 C296.402,42.1243 300.554,42.83 317.667,46.7679 C337.466,51.3239 339.086,51.874 341.702,54.9307 C344.812,58.563 345.024,61.0247 343.009,70.0692 C338.287,91.2669 333.84,108.85 332.572,111.337 C331.649,113.146 330.284,114.619 328.7,115.517 z M270.371,39.3289 C268.097,40.1937 266.974,40.1037 264.502,38.8584 C263.24,38.2225 262.173,37.1302 261.926,36.221 C261.694,35.3674 261.476,29.9829 261.442,24.2554 L261.38,13.8418 L262.973,13.2364 C263.849,12.9034 266.207,12.6309 268.214,12.6309 C273.577,12.6309 273.796,13.1131 273.796,24.8944 C273.796,35.5098 273.14,38.2764 270.371,39.3289 z M374.99,499.95 C372.271,501.317 369.796,502.436 369.489,502.436 C368.694,502.436 359.465,482.137 359.465,480.387 C359.465,478.721 361.579,477.009 365.942,475.138 L368.837,473.898 L372.913,482.424 C375.154,487.114 377.651,492.416 378.461,494.208 L379.934,497.464 L374.99,499.95 z M160.789,498.245 C159.767,499.184 158.725,499.93 158.474,499.903 C157.037,499.749 154.111,498.386 152.95,497.331 C150.309,494.932 150.537,493.655 155.228,484.558 C161.279,472.824 160.518,473.558 164.929,475.185 C169.576,476.898 170.124,477.36 170.124,479.573 C170.124,482.057 163.085,496.136 160.789,498.245 z M241.205,493.973 C238.974,494.997 236.081,495.504 234.376,495.171 C228.129,493.949 201.148,487.788 197.749,486.806 C190.65,484.757 187.506,481.447 187.506,476.023 C187.506,473.837 192.358,451.422 196.14,436.137 C198.392,427.036 199.445,424.643 202.083,422.63 C205.765,419.822 207.9,419.977 227.28,424.459 C250.058,429.727 251.001,430.019 253.6,432.617 C257.625,436.642 257.627,437.879 253.639,455.856 C246.231,489.249 245.304,492.091 241.205,493.973 z M308.457,492.77 C301.741,494.33 295.456,495.578 294.489,495.543 C290.088,495.384 286.408,493.705 284.681,491.069 C283.462,489.21 277.044,462.551 273.192,443.347 C272.254,438.676 273.105,435.505 275.969,432.99 C278.564,430.711 280.381,430.15 299.184,425.822 C318.658,421.339 321.147,420.889 323.753,421.378 C326.895,421.968 330.024,424.949 331.157,428.435 C333.48,435.576 342.083,474.039 342.083,477.28 C342.083,480.476 339.949,484.296 337.559,485.378 C335.429,486.343 328.008,488.228 308.457,492.77 z M387.558,461.806 C384.303,463.504 379.444,462.584 376.437,459.7 C374.746,458.078 357.667,436.769 350.554,427.405 C342.273,416.505 342.061,413.594 349.074,407.083 C356.807,399.904 380.568,381.432 383.014,380.7 C389.233,378.836 391.312,380.585 406.339,400.315 C411.8,407.485 417.748,415.106 419.557,417.249 C426.516,425.492 427.246,427.794 424.183,431.833 C421.668,435.149 391.798,459.594 387.558,461.806 z M150.619,460.285 C147.454,461.723 146.239,461.726 143.12,460.304 C140.351,459.042 135.688,455.429 120.071,442.446 C108.481,432.811 107.154,431.428 106.093,427.887 C104.791,423.539 106.041,421.094 116.268,407.982 C132.598,387.047 136.77,382.349 140.44,380.77 C142.864,379.728 144.475,379.452 146.944,379.656 C150.062,379.915 150.453,380.155 154.743,384.442 C157.228,386.924 164.06,392.573 169.926,396.996 C175.792,401.418 181.573,406.123 182.772,407.45 C186.273,411.324 186.564,416.655 183.515,421.042 C181.072,424.56 165.003,444.92 158.781,452.384 C154.797,457.162 152.412,459.471 150.619,460.285 z M454.748,392.829 C451.674,394.287 450.834,394.1 442.341,390.068 C429.421,383.933 403.16,370.831 402.286,370.084 C397.955,366.383 397.452,362.13 400.514,355.102 C404.823,345.209 417.089,320.727 418.662,318.878 C420.651,316.541 423.952,315.302 426.91,315.782 C429.509,316.204 435.835,319.068 455.999,328.956 C464.535,333.142 472.678,337.413 474.095,338.447 C477.039,340.596 478.349,343.644 477.869,347.227 C477.417,350.598 468.4,370.239 460.853,384.293 C457.574,390.398 456.395,392.047 454.748,392.829 z M85.4631,389.21 C80.3351,391.048 75.8174,389.896 72.6941,385.952 C69.6626,382.124 54.0922,348.538 53.5806,344.723 C53.1541,341.544 54.3652,338.285 56.7158,336.286 C58.5813,334.7 81.7631,323.105 95.3186,316.978 C104.518,312.82 108.154,312.682 111.834,316.353 C113.794,318.309 122.234,335.003 129.202,350.706 C134.814,363.354 133.483,366.29 118.969,373.286 C114.838,375.277 106.151,379.48 99.6641,382.626 C93.1769,385.773 86.7864,388.735 85.4631,389.21 z M510.57,330.901 C509.779,331.692 508.631,332.32 508.018,332.298 C505.836,332.219 492.317,329.172 490.174,328.277 C485.901,326.491 485.126,322.866 488.008,318.14 C489.179,316.22 489.473,316.078 491.576,316.417 C493.676,316.756 512.923,321.232 513.256,321.458 C513.335,321.512 513.087,323.336 512.704,325.51 C512.238,328.152 511.53,329.941 510.57,330.901 z M34.9299,326.775 C24.6985,329.138 22.8074,329.141 20.4655,326.799 C19.0115,325.345 18.6508,324.444 18.6508,322.262 C18.6508,320.765 19,319.091 19.4268,318.543 C19.9133,317.919 24.3472,316.584 31.31,314.966 C43.8041,312.061 43.4548,312.009 44.6428,316.939 C45.7069,321.354 45.5445,323.497 44.0866,324.277 C43.3945,324.648 39.274,325.772 34.9299,326.775 z M482.496,300.596 C479.183,301.306 471.494,301.33 445.756,300.706 C429.737,300.318 427.975,299.85 425.62,295.361 C424.392,293.021 424.338,291.955 424.338,269.949 C424.338,247.42 424.365,246.931 425.714,244.407 C426.678,242.606 427.917,241.434 429.844,240.501 C432.545,239.193 433.091,239.171 458.266,239.349 C482.722,239.522 484.037,239.59 486.107,240.786 C487.394,241.53 488.849,243.166 489.677,244.798 C491.046,247.5 491.073,247.975 491.07,269.305 C491.068,283.178 490.82,291.945 490.385,293.51 C489.387,297.105 486.443,299.749 482.496,300.596 z M98.7514,298.133 C95.5232,298.826 86.4661,298.849 61.7959,298.228 C46.8236,297.852 45.5175,297.54 42.6162,293.65 C41.3507,291.953 41.3039,291.167 41.126,268.607 C40.9498,246.259 40.9934,245.212 42.2032,242.734 C42.8967,241.313 44.4953,239.453 45.7558,238.599 L48.0475,237.047 L73.8558,237.047 C98.8386,237.047 99.7433,237.089 102.14,238.346 C103.876,239.256 105.081,240.55 106.175,242.674 L107.734,245.703 L107.734,267.449 C107.734,283.803 107.533,289.763 106.921,291.491 C105.78,294.709 102.579,297.312 98.7514,298.133 z M254.101,539.049 C274.821,540.413 299.025,538.483 321.287,533.693 C348.892,527.752 378.708,515.203 406.656,497.761 C483.707,449.674 525.526,379.093 532.709,285.009 C533.649,272.694 533.143,246.288 531.747,234.874 C526.086,188.557 508.843,146.249 480.008,107.922 C440.235,55.0589 391.913,22.9431 327.76,6.7357 C317.335,4.10196 315.794,3.8652 310.387,4.06515 C305.587,4.24264 303.85,4.58327 301.295,5.84756 L298.137,7.41057 L295.357,4.78423 C290.918,0.59 288.939,0.257696 267.278,0.0678813 C248.831,-0.0937432 248.623,-0.0812817 245.39,1.37987 C242.353,2.75294 238.411,6.31444 238.411,7.68621 C238.411,8.70209 237.178,8.35521 235.068,6.74557 C230.298,3.10764 224.092,2.46151 213.954,4.54744 C155.786,16.5159 101.564,48.4271 65.2788,92.0466 C25.9116,139.371 5.66576,186.897 0.666918,243.72 C-0.20808,253.667 -0.224994,281.113 0.637553,291.366 C6.01869,355.337 30.0923,408.952 75.0385,457.068 C97.8489,481.488 126.633,501.616 157.708,514.876 C191.112,529.131 222.32,536.957 254.101,539.049 z " />
	</g>
	<g inkscape:groupmode="layer" label="New Layer" id="New Layer">
		<path label="Trace Path &#40;1&#41; &#40;J&#41; &#40;1&#41; &#40;J&#41; &#40;1&#41; &#40;J&#41;&#42;" id="Trace Path &#40;1&#41; &#40;J&#41; &#40;1&#41; &#40;J&#41; &#40;1&#41; &#40;J&#41;&#42;" fill="none" stroke="black"  stroke-linejoin="round" d="M839.162,284.498 C832.923,287.459 824.535,283.854 821.651,276.972 C819.375,271.54 821.699,263.384 826.41,260.266 C831.292,257.036 837.674,257.575 842.475,261.623 C849.644,267.667 847.801,280.399 839.162,284.498 z M1027.975098,125.355 C1023.125305,129.23 1018.661926,132.813 1018.056458,133.317 C1017.052063,134.153 1016.658325,133.926 1013.555786,130.723 C1008.25,125.244 1008.317078,125.107 1021.64,114.5 L1029.09,108.57 L1030.952148,110.666 C1031.976563,111.818 1033.71,114.009 1034.803711,115.535 L1036.792969,118.308 L1027.975098,125.355 z M656.009,129.203 C655.12,130.142 654.326,130.911 654.245,130.911 C653.792,130.911 650.617,128.448 647.849,125.949 C646.101,124.37 642.295,121.284 639.391,119.09 L634.112,115.101 L637.51,110.745 C639.379,108.35 641.09,106.32 641.312,106.234 C641.719,106.078 656.574,117.97 659.343,120.668 L660.829,122.116 L659.227,124.806 C658.347,126.286 656.898,128.265 656.009,129.203 z M838.496,42.1414 C836.222,43.0062 835.099,42.9162 832.627,41.6709 C831.365,41.035 830.298,39.9427 830.051,39.0335 C829.819,38.1799 829.601,32.7954 829.567,27.0679 L829.505,16.6543 L831.098,16.0489 C831.974,15.7159 834.332,15.4434 836.339,15.4434 C841.702,15.4434 841.921,15.9256 841.921,27.7069 C841.921,38.3223 841.265,41.0889 838.496,42.1414 z M943.115,502.762 C940.396,504.13 937.921,505.248 937.614,505.248 C936.819,505.248 927.59,484.95 927.59,483.199 C927.59,481.534 929.704,479.821 934.067,477.951 L936.962,476.71 L941.038,485.237 C943.279,489.926 945.776,495.229 946.586,497.02 L948.059,500.277 L943.115,502.762 z M728.914,501.058 C727.891,501.997 726.85,502.743 726.599,502.716 C725.162,502.561 722.236,501.199 721.074,500.144 C718.434,497.745 718.662,496.468 723.352,487.371 C729.404,475.636 728.643,476.371 733.054,477.997 C737.701,479.71 738.249,480.173 738.249,482.386 C738.249,484.869 731.21,498.949 728.914,501.058 z M1078.694824,333.714 C1077.904297,334.504 1076.756104,335.133 1076.143066,335.111 C1073.961304,335.032 1060.442383,331.985 1058.298950,331.089 C1054.025635,329.304 1053.25,325.678 1056.132690,320.953 C1057.304077,319.032 1057.597900,318.89 1059.7,319.23 C1061.8,319.569 1081.048218,324.044 1081.38,324.271 C1081.46,324.325 1081.211548,326.148 1080.828491,328.323 C1080.363159,330.965 1079.655029,332.754 1078.694824,333.714 z M603.055,329.587 C592.823,331.951 590.932,331.954 588.59,329.612 C587.136,328.158 586.776,327.256 586.776,325.074 C586.776,323.577 587.125,321.904 587.552,321.356 C588.038,320.732 592.472,319.397 599.435,317.778 C611.929,314.874 611.58,314.822 612.768,319.751 C613.832,324.167 613.669,326.31 612.212,327.09 C611.519,327.46 607.399,328.584 603.055,329.587 z M822.226,541.861 C842.946,543.225 867.15,541.296 889.412,536.505 C917.017,530.565 946.833,518.015 974.781,500.574 C1051.832397,452.487 1093.65,381.905 1100.833618,287.821 C1101.773804,275.506 1101.267456,249.1 1099.872314,237.687 C1094.21,191.37 1076.967407,149.061 1048.132324,110.735 C1008.36,57.8714 960.038,25.7556 895.885,9.5482 C885.459,6.91446 883.919,6.6777 878.512,6.87765 C873.712,7.05514 871.975,7.39577 869.42,8.66006 L866.262,10.2231 L863.482,7.59673 C859.043,3.4025 857.064,3.0702 835.403,2.88038 C816.956,2.71876 816.748,2.73122 813.515,4.19237 C810.478,5.56544 806.536,9.12694 806.536,10.4987 C806.536,11.5146 805.303,11.1677 803.193,9.55807 C798.423,5.92014 792.217,5.27401 782.079,7.35994 C723.911,19.3284 669.689,51.2396 633.404,94.8591 C594.036,142.183 573.791,189.71 568.792,246.533 C567.917,256.479 567.9,283.925 568.762,294.179 C574.144,358.149 598.217,411.765 643.163,459.881 C665.974,484.3 694.758,504.428 725.833,517.689 C759.236,531.943 790.445,539.769 822.226,541.861 z " />
	</g>
</svg>
