<svg id="svg" version="1.1" xmlns="http://www.w3.org/2000/svg" xmlns:xlink="http://www.w3.org/1999/xlink" width="400" height="400" viewBox="0, 0, 400,400"><g id="svgg"><path id="path0" d="M185.400 5.360 C 182.976 6.467,180.857 8.199,180.375 9.465 C 179.926 10.647,178.489 10.699,177.073 9.586 C 173.449 6.735,168.420 6.402,159.309 8.408 C 93.496 22.900,41.625 67.476,16.187 131.400 C 16.012 131.840,15.831 132.335,15.785 132.500 C 15.738 132.665,15.664 132.845,15.619 132.900 C 15.575 132.955,15.480 133.270,15.409 133.600 C 15.338 133.930,15.052 134.740,14.773 135.400 C 14.495 136.060,14.229 136.735,14.184 136.900 C 14.138 137.065,14.055 137.290,14.000 137.400 C 13.945 137.510,13.875 137.735,13.844 137.900 C 13.813 138.065,13.645 138.425,13.470 138.700 C 13.296 138.975,13.236 139.200,13.338 139.200 C 13.439 139.200,12.902 141.225,12.143 143.700 C 11.384 146.175,10.672 148.650,10.561 149.200 C 10.451 149.750,10.092 151.190,9.765 152.400 C 8.927 155.493,8.777 156.092,8.610 157.000 C 8.529 157.440,8.357 158.250,8.227 158.800 C 7.886 160.248,7.548 162.051,7.403 163.200 C 7.334 163.750,7.174 164.650,7.049 165.200 C 6.841 166.111,6.691 167.065,6.199 170.600 C 5.883 172.872,5.571 175.404,5.385 177.200 C 5.283 178.190,5.071 180.170,4.915 181.600 C 4.546 184.980,4.546 212.620,4.915 216.000 C 5.071 217.430,5.282 219.410,5.384 220.400 C 5.804 224.470,6.547 230.184,7.006 232.868 C 7.591 236.282,7.888 237.792,8.160 238.732 C 8.266 239.099,8.451 240.030,8.569 240.800 C 8.882 242.824,8.951 243.114,10.441 248.600 C 10.919 250.360,11.351 252.070,11.400 252.400 C 11.449 252.730,11.602 253.270,11.740 253.600 C 11.878 253.930,12.055 254.560,12.134 255.000 C 12.213 255.440,12.462 256.250,12.688 256.800 C 12.913 257.350,13.246 258.430,13.426 259.200 C 13.897 261.207,13.890 261.181,14.000 261.400 C 14.055 261.510,14.145 261.780,14.200 262.000 C 14.255 262.220,14.345 262.490,14.400 262.600 C 14.455 262.710,14.538 262.935,14.585 263.100 C 14.631 263.265,14.811 263.760,14.985 264.200 C 20.174 277.330,21.787 281.154,24.182 286.000 C 53.817 345.956,110.797 385.577,180.400 394.625 C 224.019 400.295,269.022 388.582,310.800 360.687 C 344.413 338.243,368.425 309.050,381.869 274.280 C 382.652 272.256,383.479 270.150,383.708 269.600 C 383.936 269.050,384.168 268.382,384.224 268.115 C 384.461 266.976,386.133 262.166,386.419 261.800 C 386.591 261.580,386.747 261.265,386.766 261.100 C 386.785 260.935,386.815 260.755,386.833 260.700 C 386.851 260.645,386.948 260.098,387.049 259.485 C 387.149 258.871,387.432 257.881,387.678 257.285 C 387.924 256.688,388.147 256.020,388.174 255.800 C 388.281 254.923,388.908 252.576,389.136 252.200 C 389.269 251.980,389.417 251.620,389.465 251.400 C 389.514 251.180,389.654 250.595,389.777 250.100 C 390.334 247.853,390.452 247.338,390.625 246.400 C 390.726 245.850,390.925 244.950,391.067 244.400 C 391.209 243.850,391.370 243.220,391.426 243.000 C 391.548 242.514,392.019 240.101,392.206 239.000 C 392.280 238.560,392.461 237.660,392.607 237.000 C 392.753 236.340,392.941 235.260,393.025 234.600 C 393.108 233.940,393.257 232.950,393.354 232.400 C 393.452 231.850,393.645 230.770,393.783 230.000 C 394.086 228.306,394.455 225.684,394.993 221.400 C 396.216 211.658,396.327 209.209,396.180 195.000 C 396.048 182.225,395.844 178.487,394.970 172.800 C 394.886 172.250,394.730 171.170,394.625 170.400 C 394.519 169.630,394.338 168.415,394.222 167.699 C 394.105 166.984,393.932 165.904,393.838 165.299 C 393.645 164.071,393.315 162.306,392.997 160.800 C 392.881 160.250,392.681 159.170,392.553 158.400 C 392.425 157.630,392.221 156.837,392.099 156.638 C 391.976 156.439,391.824 155.899,391.760 155.438 C 391.696 154.977,391.543 154.195,391.422 153.700 C 391.300 153.205,391.099 152.395,390.977 151.900 C 390.854 151.405,390.688 150.730,390.607 150.400 C 390.527 150.070,390.434 149.800,390.400 149.800 C 390.341 149.800,390.250 149.465,389.859 147.800 C 389.756 147.360,389.480 146.505,389.245 145.900 C 389.011 145.295,388.927 144.800,389.059 144.800 C 389.190 144.800,389.122 144.575,388.906 144.300 C 388.690 144.025,388.007 142.090,387.387 140.000 C 386.767 137.910,386.135 136.020,385.983 135.800 C 385.661 135.335,384.412 131.590,384.382 131.000 C 384.370 130.780,384.096 130.195,383.771 129.700 C 383.447 129.205,383.282 128.800,383.405 128.800 C 383.528 128.800,383.403 128.395,383.128 127.900 C 382.853 127.405,382.607 126.910,382.582 126.800 C 382.556 126.690,382.144 125.730,381.667 124.667 C 381.190 123.604,380.800 122.629,380.800 122.502 C 380.800 121.209,371.174 103.329,366.854 96.600 C 340.941 56.228,305.044 28.284,260.600 13.888 C 241.304 7.637,231.573 6.257,225.892 8.966 L 223.584 10.066 221.370 8.042 C 217.944 4.911,214.631 4.389,198.410 4.423 C 187.819 4.445,187.324 4.481,185.400 5.360 M205.438 13.243 C 206.609 14.538,206.594 29.548,205.421 31.489 C 204.093 33.683,201.026 34.228,198.378 32.740 C 196.204 31.518,196.036 30.761,195.912 21.617 L 195.800 13.435 196.800 12.923 C 198.574 12.016,204.528 12.236,205.438 13.243 M183.400 34.547 C 187.422 36.436,187.920 37.844,192.751 61.000 C 195.917 76.170,195.788 75.228,195.017 77.550 C 193.644 81.682,192.579 82.220,180.000 85.130 C 159.272 89.926,157.446 90.145,154.331 88.197 C 151.091 86.169,150.678 85.037,146.838 67.600 C 140.845 40.394,139.969 41.907,164.884 36.405 C 179.018 33.283,180.411 33.143,183.400 34.547 M229.336 35.210 C 247.706 38.934,253.997 40.815,256.187 43.238 C 259.428 46.826,259.359 47.777,254.359 68.400 C 248.403 92.962,249.512 92.379,221.658 85.582 C 202.882 81.000,203.225 82.039,210.659 52.200 C 215.446 32.982,215.975 32.502,229.336 35.210 M116.340 58.680 C 119.179 60.002,127.209 69.245,138.338 84.000 C 145.731 93.803,145.183 95.147,128.283 108.648 C 110.008 123.248,110.149 123.252,98.009 107.766 C 95.264 104.265,90.593 98.351,87.629 94.625 C 78.446 83.081,79.139 81.449,99.800 65.941 C 110.999 57.536,112.483 56.884,116.340 58.680 M291.421 59.801 C 298.194 63.230,316.219 78.170,318.197 81.995 C 320.611 86.662,320.401 87.086,308.191 102.200 C 290.315 124.329,291.140 124.044,277.000 112.988 C 253.714 94.780,253.985 95.695,267.043 79.403 C 283.908 58.363,285.713 56.912,291.421 59.801 M62.410 81.654 C 64.714 83.443,68.085 86.163,69.901 87.698 L 73.202 90.488 72.301 92.119 C 71.805 93.015,70.481 94.743,69.357 95.958 C 66.982 98.527,67.459 98.634,62.400 94.398 C 60.750 93.016,57.645 90.555,55.500 88.928 C 50.776 85.346,50.776 86.126,55.499 80.500 C 57.726 77.848,57.448 77.801,62.410 81.654 M345.562 81.672 C 348.113 84.637,350.000 87.328,349.981 87.972 C 349.961 88.645,336.148 99.714,335.061 99.928 C 334.233 100.092,330.050 96.178,329.386 94.617 C 328.417 92.341,329.179 91.453,338.551 83.937 C 344.216 79.393,343.735 79.549,345.562 81.672 M69.682 110.560 C 84.100 116.723,99.268 124.493,101.325 126.770 C 104.449 130.228,103.493 133.436,93.205 154.000 C 86.020 168.362,85.211 168.634,70.127 161.765 C 38.450 147.341,38.892 148.099,49.585 126.477 C 59.030 107.377,60.154 106.487,69.682 110.560 M340.890 111.115 C 342.945 112.326,345.332 116.564,352.203 131.200 C 360.788 149.488,361.148 148.843,335.800 160.607 C 314.463 170.510,314.939 170.651,305.452 151.600 C 294.482 129.572,294.463 129.729,309.000 122.483 C 332.557 110.740,337.353 109.031,340.890 111.115 M79.000 176.474 C 84.006 179.285,84.061 179.541,83.920 199.124 C 83.745 223.437,85.064 222.260,58.400 221.885 C 31.582 221.507,33.668 223.428,33.510 198.962 L 33.400 181.800 34.400 180.019 C 34.950 179.039,36.193 177.633,37.162 176.895 L 38.925 175.552 58.362 175.676 C 75.699 175.787,77.930 175.873,79.000 176.474 M362.034 178.286 C 366.470 180.248,367.001 183.185,366.637 203.746 C 366.266 224.704,367.227 223.857,344.000 223.696 C 322.241 223.546,319.434 223.144,317.264 219.867 L 316.200 218.260 316.079 201.430 C 315.923 179.825,316.148 179.028,322.800 177.545 C 326.120 176.805,360.140 177.447,362.034 178.286 M203.800 189.985 C 211.911 193.477,212.233 205.422,204.322 209.364 C 196.654 213.185,187.808 206.032,189.589 197.452 C 190.992 190.697,197.505 187.274,203.800 189.985 M36.114 231.604 C 37.868 232.984,38.676 238.864,37.284 240.124 C 35.912 241.366,22.853 244.224,20.828 243.726 C 15.962 242.530,15.104 235.693,19.631 234.190 C 26.917 231.770,34.760 230.539,36.114 231.604 M85.438 232.651 C 87.866 234.299,90.336 238.577,96.807 252.340 C 105.446 270.714,106.047 269.711,78.693 282.568 C 65.170 288.925,64.826 289.041,61.544 288.346 C 57.955 287.585,56.852 286.156,51.582 275.433 C 39.119 250.078,39.040 250.712,55.670 242.491 C 78.258 231.324,81.771 230.163,85.438 232.651 M324.338 235.041 C 332.636 238.636,352.617 248.660,354.120 249.982 C 358.666 253.979,358.148 256.352,348.513 275.665 C 339.716 293.298,339.800 293.246,328.600 288.006 C 316.094 282.156,300.183 274.065,299.056 272.984 C 295.223 269.306,295.837 266.741,304.856 248.751 C 313.602 231.302,314.404 230.738,324.338 235.041 M373.759 235.043 C 383.458 237.266,383.212 237.158,382.939 239.101 C 381.864 246.768,380.516 247.401,370.400 244.993 C 362.321 243.070,360.299 241.035,362.147 236.687 C 363.811 232.770,363.831 232.767,373.759 235.043 M114.474 279.960 C 114.983 280.157,117.110 281.882,119.200 283.792 C 121.290 285.702,125.610 289.254,128.800 291.685 C 146.153 304.907,146.274 303.505,125.594 328.800 C 112.716 344.552,113.807 344.639,91.200 326.066 C 77.423 314.747,77.422 314.767,92.564 295.814 C 104.920 280.348,108.605 277.681,114.474 279.960 M293.572 282.251 C 294.640 283.211,297.738 286.817,300.457 290.264 C 303.176 293.712,307.971 299.758,311.113 303.701 C 320.408 315.363,320.443 315.519,314.900 320.833 C 310.217 325.323,294.392 338.057,290.524 340.447 C 287.325 342.424,282.956 341.403,279.773 337.934 C 274.203 331.862,258.625 311.810,257.495 309.257 C 255.209 304.088,257.497 301.357,275.598 287.643 C 287.543 278.593,289.013 278.152,293.572 282.251 M163.000 310.265 C 180.001 313.502,189.402 316.278,191.705 318.740 C 194.610 321.845,194.591 322.515,191.161 338.000 C 184.525 367.960,185.333 367.210,164.671 362.591 C 139.369 356.934,139.526 357.095,143.175 340.400 C 150.113 308.660,150.610 307.905,163.000 310.265 M245.400 311.119 C 248.371 313.192,249.458 316.499,254.168 337.800 C 258.553 357.625,258.972 356.926,240.000 361.413 C 214.464 367.451,214.179 367.374,210.604 353.503 C 201.331 317.523,201.065 318.446,222.131 313.573 C 241.086 309.189,242.430 309.047,245.400 311.119 M280.576 357.014 C 283.837 363.852,284.769 366.155,284.437 366.556 C 283.731 367.406,276.496 370.522,275.824 370.265 C 274.850 369.891,268.000 355.164,268.000 353.444 C 268.000 352.023,273.653 348.110,275.838 348.018 C 276.080 348.008,278.211 352.056,280.576 357.014 M126.231 349.246 C 130.592 350.878,130.901 352.194,128.282 358.000 C 123.930 367.650,121.437 369.787,117.337 367.384 C 113.640 365.218,113.720 363.580,117.910 355.600 C 122.132 347.557,121.996 347.661,126.231 349.246 " stroke="none" fill="#fcfcfc" fill-rule="evenodd"></path><path id="path1" d="M226.834 38.662 C 226.087 39.184,225.734 39.226,225.150 38.862 C 223.939 38.105,222.674 38.334,221.386 39.542 C 220.718 40.168,219.458 40.848,218.586 41.053 C 217.397 41.333,216.968 41.649,216.872 42.313 C 216.802 42.801,216.509 43.200,216.221 43.200 C 215.933 43.200,215.476 43.468,215.204 43.796 C 214.932 44.123,214.550 44.293,214.355 44.172 C 213.773 43.812,213.953 45.355,214.600 46.279 C 214.931 46.751,215.773 47.262,216.471 47.416 C 217.170 47.569,218.609 48.228,219.668 48.880 C 221.141 49.786,221.870 50.004,222.768 49.807 C 223.510 49.644,225.021 49.876,226.871 50.438 C 228.584 50.958,231.036 51.355,232.777 51.395 C 234.640 51.438,235.813 51.639,235.911 51.932 C 235.996 52.189,236.391 52.400,236.788 52.400 C 237.184 52.400,238.024 52.669,238.654 52.998 C 240.118 53.761,241.162 53.758,242.012 52.989 C 242.968 52.124,245.519 51.862,246.214 52.557 C 247.763 54.106,255.671 53.517,257.700 51.702 C 260.018 49.628,258.003 44.835,255.017 45.320 C 254.066 45.474,253.496 45.356,253.144 44.933 C 251.373 42.799,246.979 41.448,245.093 42.457 C 244.443 42.805,244.200 42.800,244.079 42.436 C 243.276 40.029,238.735 38.715,235.100 39.838 C 234.715 39.957,234.400 39.895,234.400 39.700 C 234.400 38.486,228.283 37.647,226.834 38.662 M175.864 39.630 C 175.349 40.365,175.368 40.705,176.027 42.581 C 176.538 44.036,176.674 45.062,176.457 45.851 C 176.191 46.822,176.163 51.737,176.416 53.007 C 176.942 55.640,175.111 58.587,172.348 59.556 C 169.617 60.514,165.699 55.988,165.295 51.409 C 165.178 50.084,164.565 47.699,163.932 46.110 L 162.781 43.219 163.605 42.395 C 164.058 41.942,164.305 41.352,164.154 41.085 C 162.958 38.978,161.312 38.623,160.068 40.205 C 159.107 41.426,159.350 42.703,160.656 43.298 C 161.175 43.535,161.600 43.897,161.600 44.102 C 161.600 44.308,161.942 44.957,162.360 45.544 C 163.836 47.617,165.881 59.548,165.115 61.618 C 164.754 62.595,161.842 62.479,160.200 61.423 C 158.856 60.558,156.447 56.688,154.924 52.949 C 154.130 50.997,153.021 48.680,152.462 47.800 C 151.902 46.920,151.434 45.667,151.422 45.016 C 151.394 43.483,149.652 42.327,148.638 43.168 C 147.636 44.000,147.878 44.919,149.500 46.441 C 152.054 48.839,153.350 50.807,154.718 54.369 C 156.348 58.611,157.800 61.417,159.213 63.054 C 161.445 65.641,162.541 69.600,162.229 73.947 C 161.769 80.344,161.751 80.274,163.673 79.646 C 164.403 79.407,166.440 79.024,168.200 78.794 C 169.960 78.564,173.020 77.851,175.000 77.210 C 176.980 76.569,179.770 75.845,181.200 75.601 C 184.838 74.982,185.200 74.840,185.200 74.035 C 185.200 72.904,184.087 70.976,182.961 70.154 C 180.387 68.277,177.160 62.023,177.493 59.559 C 177.624 58.592,177.713 56.990,177.690 56.000 C 177.434 44.846,177.467 43.044,177.927 42.891 C 179.241 42.453,179.618 41.595,179.012 40.423 C 178.101 38.661,176.776 38.328,175.864 39.630 M216.888 51.235 C 215.448 52.644,214.933 53.893,215.543 54.503 C 216.172 55.132,217.040 54.245,217.837 52.160 C 218.695 49.913,218.468 49.691,216.888 51.235 M241.429 54.300 C 239.852 55.963,239.856 55.955,240.395 56.800 C 240.996 57.744,242.093 56.804,242.893 54.658 C 243.732 52.408,243.317 52.307,241.429 54.300 M231.434 56.193 C 229.974 57.611,229.581 58.954,230.522 59.315 C 231.128 59.547,232.626 57.498,233.017 55.900 C 233.366 54.475,233.165 54.512,231.434 56.193 M251.253 56.767 C 249.464 58.679,249.441 58.729,249.966 59.558 C 250.552 60.484,251.572 59.731,252.423 57.746 C 253.569 55.073,253.160 54.730,251.253 56.767 M223.034 56.993 C 221.574 58.411,221.181 59.754,222.122 60.115 C 222.728 60.347,224.226 58.298,224.617 56.700 C 224.966 55.275,224.765 55.312,223.034 56.993 M242.900 62.248 C 241.429 63.862,241.186 65.200,242.364 65.200 C 242.870 65.200,243.412 64.615,243.964 63.474 C 245.413 60.482,244.972 59.974,242.900 62.248 M213.950 63.600 C 212.019 65.867,212.135 67.785,214.113 66.300 C 214.910 65.702,216.096 62.507,215.629 62.218 C 215.448 62.106,214.693 62.728,213.950 63.600 M114.002 64.109 C 108.028 67.098,111.053 74.453,118.148 74.190 C 121.359 74.071,121.112 78.864,117.895 79.104 C 117.623 79.124,116.903 79.248,116.296 79.379 C 115.397 79.573,112.921 79.813,110.163 79.974 C 109.923 79.989,109.512 80.718,109.249 81.595 C 107.621 87.029,105.092 90.437,103.388 89.494 C 102.239 88.859,101.589 87.887,101.853 87.200 C 104.282 80.869,98.561 75.603,93.757 79.748 C 90.408 82.636,90.760 90.000,94.246 90.000 C 94.771 90.000,95.200 90.140,95.200 90.311 C 95.200 90.481,95.875 90.560,96.700 90.486 C 98.011 90.368,98.263 90.491,98.700 91.455 C 99.294 92.767,99.340 93.334,98.828 93.017 C 98.623 92.891,98.355 92.949,98.232 93.148 C 98.109 93.347,97.422 93.620,96.704 93.756 C 95.987 93.892,94.950 94.119,94.400 94.260 C 93.850 94.401,92.102 94.525,90.515 94.536 C 88.558 94.549,87.733 94.691,87.948 94.977 C 88.123 95.210,88.850 96.145,89.563 97.055 L 90.861 98.709 93.330 98.540 C 95.829 98.369,98.667 97.759,99.400 97.236 C 100.769 96.259,102.154 98.277,103.357 103.000 C 103.749 104.540,104.139 106.027,104.224 106.304 C 104.309 106.582,104.398 106.942,104.423 107.104 C 104.448 107.267,104.655 107.625,104.883 107.900 C 105.111 108.175,105.164 108.400,105.000 108.400 C 104.836 108.400,104.926 108.670,105.200 109.000 C 105.474 109.330,105.580 109.600,105.435 109.600 C 105.290 109.600,105.340 109.915,105.546 110.300 C 105.752 110.685,106.042 111.720,106.192 112.600 C 106.341 113.480,106.526 114.470,106.601 114.800 C 106.677 115.130,106.753 116.075,106.769 116.900 C 106.868 121.749,109.347 114.769,109.814 108.326 C 110.186 103.199,110.311 103.141,114.373 106.213 C 116.228 107.616,118.298 108.968,118.973 109.218 C 119.648 109.468,120.977 110.035,121.926 110.477 C 124.377 111.620,124.453 111.093,122.176 108.736 C 121.089 107.611,118.175 104.600,115.700 102.045 C 113.225 99.490,110.138 96.299,108.840 94.954 L 106.480 92.508 108.886 90.154 C 110.209 88.859,111.805 87.056,112.433 86.147 C 113.087 85.198,114.049 84.359,114.687 84.179 C 116.905 83.553,117.523 83.249,120.139 81.490 C 121.425 80.625,122.610 80.071,122.772 80.259 C 123.476 81.073,129.200 90.057,129.200 90.348 C 129.200 90.524,130.439 92.472,131.954 94.677 C 133.468 96.881,135.019 99.340,135.399 100.142 C 135.941 101.283,136.800 102.117,136.800 101.500 C 136.800 101.415,135.952 97.049,135.369 94.127 C 135.273 93.647,134.706 92.297,134.110 91.127 C 133.513 89.957,132.997 88.865,132.963 88.700 C 132.928 88.535,132.864 88.355,132.819 88.300 C 131.271 86.379,134.714 86.186,140.542 87.867 C 141.091 88.025,140.831 87.436,139.542 85.603 C 136.992 81.977,135.580 80.667,132.740 79.294 C 131.343 78.618,129.684 77.523,129.052 76.861 L 127.905 75.657 128.752 74.467 C 129.826 72.960,129.837 73.048,128.327 71.169 C 127.017 69.539,126.706 69.546,125.854 71.227 C 124.615 73.670,121.900 72.708,122.860 70.166 C 124.601 65.554,118.902 61.657,114.002 64.109 M228.841 64.614 C 227.446 66.204,227.202 67.600,228.320 67.600 C 228.778 67.600,229.361 66.941,229.920 65.789 C 231.374 62.797,230.895 62.275,228.841 64.614 M118.588 66.238 C 119.070 66.973,119.121 67.400,118.800 68.000 C 117.981 69.529,115.975 67.174,116.633 65.457 C 116.935 64.672,117.784 65.011,118.588 66.238 M176.439 65.313 C 178.347 66.769,179.011 70.770,177.623 72.456 L 176.846 73.400 175.571 72.141 C 172.330 68.938,173.113 62.775,176.439 65.313 M237.086 67.958 C 235.492 69.721,235.088 71.353,236.300 71.129 C 237.049 70.991,238.975 67.525,238.723 66.768 C 238.639 66.518,237.903 67.054,237.086 67.958 M285.069 67.283 C 284.762 67.473,285.546 68.528,287.341 70.338 C 288.857 71.867,289.898 73.216,289.672 73.356 C 289.446 73.495,289.136 74.180,288.983 74.878 C 288.830 75.575,288.395 76.698,288.016 77.373 C 287.637 78.048,287.112 79.251,286.850 80.047 C 286.588 80.843,285.863 82.178,285.240 83.014 L 284.106 84.534 285.762 85.967 C 286.673 86.755,288.371 88.099,289.534 88.952 L 291.650 90.505 290.604 91.596 L 289.559 92.687 284.139 89.969 C 281.158 88.475,278.645 87.178,278.555 87.088 C 278.465 86.998,278.580 85.560,278.812 83.893 C 279.673 77.702,279.715 77.604,281.359 77.871 C 282.891 78.119,283.187 77.249,283.196 72.476 C 283.201 69.552,282.846 69.546,281.378 72.443 C 280.115 74.936,279.529 74.647,279.826 71.676 L 280.053 69.400 279.029 70.600 C 278.465 71.260,278.003 72.025,278.002 72.300 C 278.001 72.575,277.820 72.800,277.600 72.800 C 277.380 72.800,277.200 73.106,277.200 73.480 C 277.200 73.950,277.072 74.032,276.785 73.745 C 276.499 73.459,276.499 72.993,276.785 72.239 C 277.844 69.453,277.064 69.339,275.085 71.990 C 273.194 74.524,273.203 74.585,275.647 75.824 L 277.693 76.861 277.464 79.130 C 277.338 80.379,277.141 81.940,277.026 82.600 C 276.262 86.995,276.420 88.375,277.807 89.432 C 279.026 90.362,285.378 92.800,286.582 92.800 C 288.401 92.800,287.941 93.958,285.131 96.448 C 283.547 97.851,281.722 99.510,281.077 100.134 C 279.501 101.656,277.943 102.490,274.600 103.602 C 271.749 104.550,270.983 104.690,268.263 104.760 L 266.727 104.800 268.936 106.600 C 271.455 108.652,271.461 108.653,272.574 107.673 C 273.028 107.274,274.750 106.427,276.400 105.792 C 278.050 105.157,280.015 104.231,280.767 103.736 C 282.063 102.882,282.193 102.869,283.233 103.483 L 284.332 104.132 283.366 106.316 C 282.835 107.517,282.399 108.702,282.398 108.950 C 282.396 109.197,282.150 109.869,281.851 110.443 C 281.551 111.017,281.182 112.479,281.031 113.693 L 280.755 115.899 282.796 117.397 C 285.290 119.228,285.239 119.276,285.385 114.934 C 285.578 109.205,286.948 103.200,288.062 103.200 C 289.016 103.200,289.584 104.581,289.467 106.612 C 289.312 109.293,289.929 110.835,291.439 111.549 C 292.077 111.851,293.050 112.323,293.600 112.600 C 294.671 113.137,295.176 113.023,296.900 111.854 C 299.232 110.273,297.242 104.954,294.440 105.279 C 293.214 105.422,292.823 106.789,293.781 107.584 C 294.296 108.012,294.400 107.989,294.400 107.449 C 294.400 106.361,295.472 106.726,295.997 107.993 C 296.641 109.548,296.278 110.477,295.107 110.267 C 291.458 109.612,290.590 108.972,291.222 107.400 C 292.069 105.293,291.655 102.747,290.250 101.421 L 288.900 100.148 290.039 98.774 C 290.666 98.018,291.183 97.253,291.189 97.073 C 291.195 96.894,291.679 96.119,292.264 95.352 C 293.754 93.398,294.492 94.178,294.554 97.768 C 294.608 100.867,294.507 100.777,295.823 98.900 L 296.876 97.400 296.689 99.573 C 296.526 101.488,296.569 101.657,297.052 100.997 C 297.353 100.585,297.600 100.091,297.600 99.900 C 297.600 99.709,297.780 99.664,298.000 99.800 C 298.220 99.936,298.401 100.892,298.401 101.924 L 298.403 103.800 299.196 102.500 C 300.483 100.388,301.182 101.459,301.196 105.567 C 301.199 106.656,301.751 107.100,301.817 106.067 C 301.826 105.920,302.260 104.900,302.781 103.800 C 303.302 102.700,303.752 101.710,303.781 101.600 C 303.810 101.490,304.122 100.860,304.475 100.200 C 305.144 98.948,306.730 94.436,307.031 92.927 C 307.193 92.117,307.112 92.081,305.906 92.427 C 305.190 92.632,304.018 92.800,303.300 92.800 L 301.995 92.800 302.238 90.807 L 302.481 88.813 301.285 89.230 C 300.627 89.460,299.252 89.592,298.229 89.524 L 296.370 89.400 297.840 87.890 C 299.181 86.513,299.385 86.428,300.155 86.924 C 300.620 87.224,301.900 87.690,303.000 87.960 C 304.100 88.231,305.380 88.698,305.844 88.998 C 307.377 89.991,311.899 90.478,313.898 89.865 C 317.847 88.654,317.403 82.505,313.081 78.534 L 311.846 77.400 312.601 78.600 C 315.474 83.168,314.850 86.514,311.263 85.772 C 310.458 85.606,309.550 85.454,309.245 85.435 C 308.940 85.416,308.468 84.590,308.195 83.600 C 307.922 82.610,307.429 80.959,307.098 79.931 L 306.497 78.062 307.498 77.811 C 308.743 77.499,308.597 75.915,307.026 72.696 L 306.004 70.600 306.135 72.897 L 306.265 75.194 303.749 74.949 C 299.462 74.533,299.194 74.717,299.432 77.904 L 299.634 80.600 298.838 78.655 C 297.807 76.132,297.771 76.110,297.029 77.543 C 296.236 79.078,296.223 81.602,296.999 83.460 C 297.623 84.953,296.994 85.951,293.932 88.327 C 293.112 88.962,290.316 87.672,287.837 85.515 L 286.273 84.155 287.605 81.777 C 288.337 80.470,289.466 78.370,290.115 77.110 L 291.293 74.820 293.247 74.982 L 295.200 75.145 295.160 73.072 C 295.138 71.933,294.978 70.550,294.804 70.000 L 294.488 69.000 293.956 70.300 C 293.664 71.015,293.194 71.600,292.912 71.600 C 292.237 71.600,292.268 70.862,293.002 69.454 C 293.990 67.561,293.661 67.311,292.221 68.860 C 290.946 70.231,290.811 70.283,290.000 69.715 L 289.136 69.110 290.435 68.320 C 291.461 67.696,291.615 67.453,291.167 67.161 C 290.525 66.744,285.784 66.838,285.069 67.283 M116.017 68.431 C 116.631 69.580,116.217 70.400,115.022 70.400 C 113.943 70.400,112.536 68.751,112.989 68.018 C 113.460 67.256,115.540 67.540,116.017 68.431 M167.840 67.906 C 170.002 69.350,169.595 74.997,167.348 74.727 C 165.579 74.514,163.934 70.988,164.704 69.059 C 165.287 67.596,166.634 67.101,167.840 67.906 M208.500 70.777 C 208.005 71.190,207.600 71.660,207.600 71.820 C 207.600 71.981,207.320 72.316,206.978 72.566 C 206.208 73.130,206.636 74.490,207.529 74.318 C 208.179 74.193,209.316 72.471,209.785 70.900 C 210.110 69.812,209.704 69.773,208.500 70.777 M118.830 70.910 C 118.781 71.388,118.232 71.296,118.060 70.780 C 117.972 70.516,118.116 70.372,118.380 70.460 C 118.644 70.548,118.846 70.751,118.830 70.910 M220.229 71.900 C 218.652 73.563,218.656 73.555,219.195 74.400 C 219.912 75.525,221.369 74.013,222.184 71.300 C 222.583 69.969,221.844 70.196,220.229 71.900 M245.892 73.442 C 244.280 75.053,243.820 76.966,245.100 76.729 C 245.840 76.593,247.776 73.129,247.529 72.386 C 247.449 72.146,246.712 72.621,245.892 73.442 M182.800 76.210 C 181.590 76.514,178.890 77.108,176.800 77.531 C 174.710 77.955,172.100 78.568,171.000 78.896 C 168.104 79.757,165.614 80.359,163.900 80.614 C 161.997 80.896,162.019 81.204,164.098 83.460 L 165.797 85.303 170.198 85.077 C 174.955 84.833,179.258 83.746,181.353 82.260 C 184.700 79.885,186.395 77.607,185.858 76.207 C 185.585 75.497,185.641 75.497,182.800 76.210 M303.991 76.300 C 303.986 76.465,303.651 77.031,303.245 77.559 L 302.508 78.517 302.323 77.259 C 302.161 76.155,302.253 76.000,303.069 76.000 C 303.581 76.000,303.996 76.135,303.991 76.300 M229.818 78.608 C 228.387 80.082,228.091 81.600,229.236 81.600 C 230.110 81.600,230.660 80.897,231.377 78.865 C 232.098 76.823,231.628 76.745,229.818 78.608 M210.263 79.016 C 208.713 80.659,208.517 81.696,209.713 81.926 C 210.222 82.024,210.644 81.549,211.236 80.212 C 212.380 77.625,212.008 77.166,210.263 79.016 M304.613 84.319 C 304.222 84.713,302.400 83.810,302.400 83.223 C 302.400 82.041,302.847 82.010,303.807 83.126 C 304.316 83.716,304.678 84.254,304.613 84.319 M99.127 83.412 C 98.972 84.646,98.439 84.844,97.844 83.889 C 97.500 83.338,97.535 83.091,98.000 82.795 C 98.970 82.176,99.261 82.336,99.127 83.412 M238.452 84.310 C 237.020 85.775,236.844 86.135,237.218 86.834 C 237.834 87.985,238.429 87.628,239.513 85.454 C 240.856 82.761,240.422 82.292,238.452 84.310 M220.924 84.599 C 220.466 85.095,220.618 85.600,221.224 85.600 C 221.635 85.600,222.023 84.461,221.683 84.255 C 221.527 84.161,221.186 84.316,220.924 84.599 M96.174 85.958 C 96.296 86.155,96.112 86.425,95.765 86.558 C 94.873 86.900,94.800 86.873,94.800 86.200 C 94.800 85.551,95.812 85.373,96.174 85.958 M67.244 110.510 C 66.443 112.018,65.704 112.143,65.021 110.885 L 64.432 109.800 64.416 111.300 C 64.398 112.955,63.897 113.186,62.677 112.100 C 61.900 111.408,61.899 111.416,62.562 112.712 C 63.453 114.454,63.073 114.958,61.477 114.150 L 60.200 113.503 61.300 114.673 C 62.633 116.092,62.657 116.305,61.500 116.484 C 60.667 116.613,60.697 116.675,61.900 117.322 C 63.297 118.073,63.645 119.180,62.500 119.232 C 61.759 119.265,61.712 119.238,63.953 120.068 C 64.844 120.398,64.863 120.467,64.250 121.145 C 63.626 121.834,63.678 121.868,65.297 121.835 C 66.816 121.804,66.997 121.897,66.968 122.701 C 66.938 123.551,66.989 123.568,67.854 123.001 C 69.158 122.147,69.527 122.248,69.691 123.500 L 69.835 124.600 70.366 123.534 C 71.131 122.000,72.274 121.828,73.013 123.136 L 73.613 124.200 73.521 123.000 C 73.371 121.040,73.913 120.582,75.093 121.670 L 76.102 122.600 75.463 121.343 L 74.824 120.086 78.159 121.395 C 84.907 124.044,86.898 125.675,84.549 126.628 C 83.697 126.974,81.616 127.897,79.925 128.680 C 76.921 130.070,76.485 130.121,74.054 129.374 C 73.198 129.110,73.137 129.173,73.412 130.038 C 73.681 130.886,73.643 130.933,73.067 130.456 C 72.509 129.992,72.199 130.092,70.831 131.176 C 69.439 132.278,69.079 132.390,67.921 132.079 C 66.735 131.761,66.494 131.849,65.568 132.933 L 64.537 134.141 62.818 133.454 C 61.873 133.076,61.029 132.838,60.941 132.926 C 60.854 133.013,61.587 133.392,62.571 133.768 C 64.237 134.404,64.335 134.520,63.980 135.452 C 63.386 137.015,63.521 137.581,64.606 138.075 C 65.478 138.473,65.578 138.711,65.360 139.871 C 65.204 140.703,65.299 141.437,65.610 141.812 C 66.017 142.302,65.984 142.554,65.438 143.158 C 64.800 143.863,64.836 143.942,66.158 144.722 C 66.924 145.174,67.858 146.141,68.233 146.872 C 68.608 147.602,69.647 149.280,70.542 150.600 C 72.084 152.875,75.263 158.400,75.030 158.400 C 74.042 158.400,59.993 151.018,59.971 150.487 C 59.956 150.109,59.175 148.180,58.237 146.200 L 56.532 142.600 53.366 145.702 C 50.052 148.949,50.121 149.311,53.743 147.681 C 56.076 146.631,56.160 146.671,57.002 149.205 C 58.451 153.570,55.505 155.359,52.400 152.000 C 50.190 149.609,49.637 149.446,50.810 151.531 C 51.460 152.689,52.316 153.381,54.315 154.367 C 57.135 155.758,57.012 155.777,58.227 153.761 C 58.629 153.094,58.815 153.114,61.427 154.105 C 70.730 157.633,73.895 158.917,75.067 159.642 C 77.354 161.055,77.788 160.128,76.062 157.520 C 75.435 156.574,74.517 154.800,74.020 153.577 C 73.523 152.355,72.460 150.483,71.658 149.419 C 69.384 146.400,69.341 146.319,69.900 146.115 C 70.175 146.015,70.400 145.680,70.400 145.370 C 70.400 144.789,73.854 145.876,76.728 147.363 C 77.952 147.996,77.959 148.017,77.427 149.522 L 76.891 151.043 80.473 154.721 C 84.702 159.065,84.731 159.072,86.338 156.056 L 87.587 153.712 86.761 152.964 C 85.194 151.547,84.661 149.600,85.573 148.629 C 86.665 147.467,87.860 144.566,88.180 142.300 C 88.488 140.125,89.366 139.842,92.168 141.012 L 93.634 141.625 94.446 139.790 C 95.799 136.731,95.900 135.202,94.752 135.189 C 94.229 135.182,92.000 134.741,89.800 134.207 C 86.060 133.301,85.769 133.282,85.317 133.919 C 83.610 136.329,84.050 136.293,80.432 134.313 C 77.582 132.753,77.264 132.475,78.069 132.255 C 78.722 132.076,78.852 131.904,78.502 131.678 C 77.879 131.274,85.438 127.390,87.400 127.105 C 88.434 126.955,88.449 125.629,87.423 125.044 C 86.996 124.800,85.646 123.976,84.423 123.214 C 83.201 122.451,81.120 121.313,79.800 120.686 C 77.201 119.449,75.600 118.171,75.600 117.330 C 75.600 117.039,76.005 116.795,76.500 116.788 C 77.373 116.776,77.376 116.763,76.600 116.338 C 75.015 115.471,74.694 114.687,75.695 114.131 C 76.584 113.637,76.579 113.628,75.400 113.608 C 73.938 113.583,73.001 113.046,73.372 112.445 C 73.551 112.155,73.216 112.000,72.411 112.000 C 71.673 112.000,71.081 111.755,70.941 111.391 C 70.768 110.939,70.365 110.845,69.386 111.029 C 68.230 111.246,68.049 111.164,67.933 110.370 C 67.801 109.472,67.794 109.474,67.244 110.510 M326.321 115.013 C 326.204 115.130,325.460 115.276,324.667 115.339 C 323.875 115.401,322.891 115.755,322.482 116.126 C 322.072 116.497,321.526 116.800,321.269 116.800 C 320.615 116.800,320.681 117.122,321.561 118.242 C 322.132 118.967,322.269 119.609,322.109 120.805 C 321.852 122.719,321.976 122.748,323.752 121.189 C 324.511 120.522,325.372 120.027,325.666 120.089 C 326.017 120.162,326.200 119.790,326.200 119.000 C 326.200 118.340,326.531 117.313,326.934 116.718 C 327.774 115.480,327.266 114.068,326.321 115.013 M338.521 119.431 C 338.596 119.854,338.886 121.190,339.165 122.400 L 339.673 124.600 337.807 126.537 C 335.629 128.800,335.629 128.802,338.083 128.423 C 340.322 128.077,340.760 128.286,341.038 129.832 C 341.368 131.672,341.789 131.746,343.144 130.203 C 344.335 128.847,344.489 128.787,345.833 129.158 C 348.016 129.761,349.118 129.094,347.778 127.982 C 346.472 126.898,346.341 126.084,347.188 124.330 C 348.457 121.703,347.739 121.071,344.815 122.241 L 343.145 122.909 341.673 121.541 C 338.682 118.764,338.364 118.551,338.521 119.431 M328.800 122.922 C 328.800 123.712,319.462 132.400,318.614 132.400 C 318.472 132.400,318.846 131.978,319.445 131.463 C 321.351 129.823,319.783 128.356,317.690 129.822 C 316.860 130.403,316.841 130.518,317.391 131.583 C 317.908 132.582,317.908 132.750,317.395 132.947 C 317.073 133.070,316.852 132.986,316.905 132.759 C 317.033 132.205,314.341 131.350,311.400 131.011 C 310.080 130.859,308.550 130.678,308.000 130.609 C 306.839 130.463,302.489 129.668,300.274 129.197 C 298.367 128.791,298.099 129.295,298.830 131.914 C 299.353 133.789,303.872 144.718,304.744 146.216 C 304.996 146.647,305.747 148.260,306.415 149.800 C 308.347 154.256,314.173 165.961,314.469 165.982 C 314.617 165.992,315.605 164.695,316.663 163.100 C 317.722 161.505,319.734 158.670,321.135 156.800 C 324.565 152.222,326.061 148.526,323.958 149.826 C 323.511 150.102,322.812 149.355,322.812 148.600 C 322.812 148.380,322.966 148.442,323.153 148.738 C 323.437 149.185,323.687 149.178,324.647 148.694 C 325.747 148.139,327.001 147.761,329.200 147.323 C 329.750 147.214,330.380 147.083,330.600 147.032 C 334.714 146.091,336.076 145.944,338.476 146.180 C 341.528 146.481,341.498 146.516,340.559 143.714 C 338.336 137.082,333.633 127.367,331.982 126.000 C 331.849 125.890,331.316 125.035,330.797 124.100 C 329.892 122.470,328.800 121.826,328.800 122.922 M309.500 124.188 C 309.607 124.747,309.448 125.503,309.147 125.867 C 308.720 126.385,308.710 126.567,309.100 126.698 C 309.375 126.791,309.600 127.144,309.600 127.482 C 309.600 128.007,309.696 128.018,310.256 127.554 C 310.616 127.255,311.368 127.070,311.926 127.143 C 312.939 127.275,312.940 127.273,312.240 126.206 C 311.855 125.617,311.635 124.886,311.752 124.580 C 312.013 123.900,311.359 123.419,310.988 124.020 C 310.808 124.310,310.489 124.242,310.013 123.812 C 309.352 123.213,309.318 123.238,309.500 124.188 M59.260 132.380 C 59.432 132.896,59.981 132.988,60.030 132.510 C 60.047 132.351,59.844 132.148,59.580 132.060 C 59.316 131.972,59.172 132.116,59.260 132.380 M68.400 132.938 C 68.400 133.014,68.053 133.390,67.628 133.775 C 66.887 134.445,66.864 134.440,67.074 133.637 C 67.247 132.976,68.400 132.368,68.400 132.938 M316.308 133.426 C 316.095 133.638,318.921 140.541,319.572 141.400 C 320.001 141.965,320.414 143.200,320.174 143.200 C 319.897 143.200,315.600 133.977,315.600 133.381 C 315.600 133.282,315.810 133.200,316.067 133.200 C 316.323 133.200,316.432 133.302,316.308 133.426 M311.000 134.800 C 311.136 135.020,311.124 135.399,310.974 135.643 C 310.705 136.078,310.021 135.411,310.006 134.700 C 309.997 134.262,310.712 134.333,311.000 134.800 M307.333 136.231 C 307.074 136.906,306.400 136.587,306.400 135.789 C 306.400 135.463,306.643 135.318,306.975 135.446 C 307.291 135.567,307.452 135.920,307.333 136.231 M309.600 136.019 C 309.600 136.203,309.420 136.464,309.200 136.600 C 308.980 136.736,308.800 136.761,308.800 136.656 C 308.800 136.551,308.690 136.179,308.555 135.828 C 308.376 135.362,308.484 135.257,308.955 135.438 C 309.310 135.574,309.600 135.836,309.600 136.019 M66.000 136.800 C 66.000 137.246,65.733 137.600,65.397 137.600 C 64.893 137.600,64.876 137.467,65.293 136.800 C 65.568 136.360,65.839 136.000,65.896 136.000 C 65.953 136.000,66.000 136.360,66.000 136.800 M312.000 137.424 C 312.000 137.741,311.820 138.000,311.600 138.000 C 311.380 138.000,311.200 137.629,311.200 137.176 C 311.200 136.723,311.380 136.464,311.600 136.600 C 311.820 136.736,312.000 137.107,312.000 137.424 M308.703 139.031 C 308.309 139.424,307.600 138.820,307.600 138.091 C 307.600 137.480,307.653 137.481,308.276 138.105 C 308.648 138.477,308.840 138.893,308.703 139.031 M306.836 139.313 C 307.186 140.021,308.238 142.116,309.173 143.969 C 310.108 145.823,310.936 147.623,311.014 147.969 C 311.092 148.316,311.615 149.841,312.178 151.359 C 313.702 155.472,313.023 157.278,311.449 153.299 C 311.036 152.254,309.532 148.970,308.108 146.000 C 305.392 140.339,304.669 137.990,305.648 138.013 C 305.951 138.020,306.486 138.605,306.836 139.313 M311.000 138.733 C 311.000 139.457,310.217 139.325,310.062 138.575 C 309.975 138.158,310.125 137.975,310.462 138.087 C 310.758 138.186,311.000 138.477,311.000 138.733 M313.022 139.635 C 313.169 139.874,313.114 140.246,312.899 140.461 C 312.643 140.717,312.432 140.566,312.291 140.026 C 312.064 139.158,312.562 138.891,313.022 139.635 M310.000 141.424 C 310.000 141.741,309.839 142.000,309.643 142.000 C 309.201 142.000,308.771 140.962,309.083 140.650 C 309.433 140.300,310.000 140.778,310.000 141.424 M312.400 141.876 C 312.400 142.663,311.435 142.315,311.271 141.468 C 311.181 141.004,311.332 140.876,311.771 141.044 C 312.117 141.177,312.400 141.551,312.400 141.876 M314.600 142.400 C 314.736 142.620,314.724 142.999,314.574 143.243 C 314.305 143.678,313.621 143.011,313.606 142.300 C 313.597 141.862,314.312 141.933,314.600 142.400 M311.600 144.200 C 311.600 144.530,311.439 144.800,311.243 144.800 C 311.046 144.800,310.782 144.530,310.655 144.200 C 310.515 143.835,310.655 143.600,311.013 143.600 C 311.336 143.600,311.600 143.870,311.600 144.200 M313.867 145.028 C 313.867 145.817,313.036 145.517,312.871 144.668 C 312.787 144.233,312.937 144.078,313.304 144.219 C 313.614 144.337,313.867 144.702,313.867 145.028 M316.400 146.049 C 316.400 146.242,316.130 146.400,315.800 146.400 C 315.455 146.400,315.200 146.039,315.200 145.551 C 315.200 144.842,315.299 144.784,315.800 145.200 C 316.130 145.474,316.400 145.856,316.400 146.049 M322.766 147.800 C 322.766 148.020,322.422 147.570,322.000 146.800 C 321.578 146.030,321.234 145.220,321.234 145.000 C 321.234 144.780,321.578 145.230,322.000 146.000 C 322.422 146.770,322.766 147.580,322.766 147.800 M312.800 146.976 C 312.800 147.293,312.620 147.664,312.400 147.800 C 312.180 147.936,312.000 147.961,312.000 147.856 C 312.000 147.751,311.891 147.381,311.757 147.033 C 311.598 146.618,311.735 146.400,312.157 146.400 C 312.511 146.400,312.800 146.659,312.800 146.976 M314.933 147.831 C 314.674 148.506,314.000 148.187,314.000 147.389 C 314.000 147.063,314.243 146.918,314.575 147.046 C 314.891 147.167,315.052 147.520,314.933 147.831 M345.822 147.964 C 345.090 149.055,344.918 149.113,342.976 148.913 C 340.378 148.645,340.025 149.145,341.572 150.907 L 342.761 152.261 341.881 153.149 L 341.000 154.037 342.692 153.941 C 343.976 153.868,344.610 154.058,345.329 154.734 C 346.657 155.981,347.600 155.521,347.600 153.626 C 347.600 152.271,347.749 152.068,349.257 151.368 C 350.955 150.581,351.338 149.856,350.097 149.780 C 349.714 149.756,348.823 149.706,348.117 149.668 C 346.907 149.604,346.840 149.520,346.944 148.200 C 347.078 146.497,346.838 146.447,345.822 147.964 M317.400 148.733 C 317.400 149.457,316.617 149.325,316.462 148.575 C 316.375 148.158,316.525 147.975,316.862 148.087 C 317.158 148.186,317.400 148.477,317.400 148.733 M326.500 148.278 C 325.452 148.485,325.461 148.457,326.064 149.781 C 326.828 151.458,328.893 151.243,328.725 149.503 C 328.596 148.169,328.190 147.945,326.500 148.278 M313.938 149.779 C 314.027 150.235,313.882 150.428,313.538 150.313 C 313.242 150.214,312.938 149.813,312.862 149.421 C 312.773 148.965,312.918 148.772,313.262 148.887 C 313.558 148.986,313.862 149.387,313.938 149.779 M316.000 150.424 C 316.000 150.877,315.820 151.136,315.600 151.000 C 315.380 150.864,315.200 150.493,315.200 150.176 C 315.200 149.859,315.380 149.600,315.600 149.600 C 315.820 149.600,316.000 149.971,316.000 150.424 M318.597 152.004 C 318.251 152.564,317.616 151.802,317.606 150.814 C 317.601 150.326,317.708 150.336,318.247 150.876 C 318.604 151.233,318.761 151.739,318.597 152.004 M315.200 152.449 C 315.200 152.642,314.930 152.800,314.600 152.800 C 314.255 152.800,314.000 152.439,314.000 151.951 C 314.000 151.242,314.099 151.184,314.600 151.600 C 314.930 151.874,315.200 152.256,315.200 152.449 M317.330 152.961 C 317.580 153.613,317.244 154.074,316.744 153.766 C 316.290 153.485,316.300 152.400,316.757 152.400 C 316.954 152.400,317.211 152.652,317.330 152.961 M319.507 154.079 C 319.307 154.679,318.613 154.507,318.471 153.823 C 318.382 153.395,318.542 153.280,318.988 153.451 C 319.343 153.587,319.577 153.870,319.507 154.079 M316.200 154.400 C 316.336 154.620,316.324 154.999,316.174 155.243 C 315.905 155.678,315.221 155.011,315.206 154.300 C 315.197 153.862,315.912 153.933,316.200 154.400 M328.979 158.423 C 328.257 159.221,327.626 159.245,325.797 158.543 C 325.164 158.301,325.165 158.372,325.809 159.617 C 326.343 160.650,326.397 161.112,326.049 161.670 C 325.379 162.743,325.487 162.888,326.749 162.611 C 327.586 162.427,327.963 162.528,328.137 162.979 C 328.534 164.015,329.543 163.724,329.421 162.609 C 329.344 161.905,329.549 161.543,330.131 161.358 C 330.914 161.110,330.918 161.076,330.221 160.566 C 329.678 160.169,329.555 159.726,329.737 158.817 C 330.025 157.377,329.958 157.342,328.979 158.423 M56.000 180.961 C 49.343 182.871,44.247 187.138,43.401 191.510 C 42.744 194.904,42.757 195.017,44.010 196.822 C 44.689 197.800,45.640 199.176,46.122 199.879 C 46.605 200.583,47.270 201.237,47.600 201.334 C 47.930 201.430,48.497 201.632,48.861 201.782 C 49.666 202.115,52.405 198.749,52.391 197.442 C 52.383 196.633,52.352 196.639,51.629 197.580 C 50.981 198.424,50.785 198.486,50.228 198.023 C 49.872 197.728,49.473 197.594,49.341 197.726 C 48.937 198.129,46.400 195.951,46.400 195.202 C 46.400 194.815,46.670 194.274,47.000 194.000 C 47.696 193.422,47.783 192.343,47.183 191.743 C 46.567 191.127,47.781 190.272,49.214 190.313 C 50.528 190.350,50.578 190.279,49.995 189.190 C 49.480 188.228,50.518 187.581,52.093 187.882 C 52.975 188.050,53.265 187.895,53.653 187.044 C 54.275 185.678,56.264 185.850,57.303 187.360 C 57.501 187.648,57.873 187.455,58.380 186.800 C 59.947 184.774,62.350 185.587,61.415 187.826 L 60.852 189.173 62.326 189.403 C 66.634 190.074,67.188 190.427,67.393 192.634 C 67.514 193.934,67.372 194.144,65.569 195.322 C 63.347 196.775,63.258 196.994,64.487 197.990 C 65.817 199.067,64.901 199.991,62.784 199.707 C 61.913 199.590,61.200 199.565,61.200 199.650 C 61.200 199.735,61.359 200.359,61.553 201.036 C 61.968 202.482,61.096 203.310,59.532 202.955 C 57.577 202.510,55.200 202.308,55.200 202.586 C 55.200 203.088,56.897 205.365,57.896 206.204 C 58.690 206.870,58.789 207.177,58.475 208.004 C 58.066 209.080,58.000 209.361,58.000 210.045 C 58.000 210.336,57.517 210.398,56.593 210.225 C 54.785 209.886,54.265 210.200,54.845 211.283 C 55.504 212.515,57.760 214.670,58.704 214.970 C 60.386 215.503,60.061 216.356,57.725 217.538 C 55.028 218.901,55.307 219.203,59.527 219.488 C 63.145 219.732,62.924 219.621,62.421 220.945 L 62.020 222.000 68.737 222.000 C 75.234 222.000,79.155 221.444,79.778 220.435 C 80.114 219.891,77.215 217.036,74.764 215.496 C 68.076 211.296,66.214 204.821,70.547 200.830 C 71.126 200.297,71.600 199.613,71.600 199.310 C 71.600 199.008,71.870 198.238,72.201 197.599 C 77.021 188.277,66.863 177.843,56.000 180.961 M341.560 186.959 C 341.472 187.038,340.500 187.198,339.400 187.315 C 338.300 187.431,336.590 187.822,335.600 188.183 C 334.610 188.545,333.593 188.884,333.340 188.938 C 333.088 188.991,332.593 189.274,332.240 189.567 C 331.888 189.859,331.600 189.965,331.600 189.803 C 331.600 189.641,331.156 189.799,330.614 190.154 C 330.072 190.509,329.391 190.800,329.102 190.800 C 327.141 190.800,321.436 198.760,320.345 203.019 C 319.308 207.068,319.390 215.356,320.457 214.287 C 320.899 213.844,321.878 213.610,323.457 213.569 C 324.746 213.537,326.475 213.494,327.300 213.474 C 328.125 213.455,328.800 213.307,328.800 213.146 C 328.800 212.985,329.344 212.869,330.009 212.888 C 331.656 212.935,333.266 211.432,332.829 210.255 C 332.467 209.281,332.568 204.432,333.015 201.279 C 333.332 199.045,335.006 197.349,337.600 196.634 L 338.600 196.358 337.757 197.097 C 333.929 200.453,333.336 210.928,336.964 211.110 C 337.164 211.120,337.488 211.414,337.684 211.764 C 338.193 212.675,338.931 212.591,338.442 211.679 C 337.889 210.645,339.224 209.893,341.018 210.230 C 341.996 210.413,342.400 210.703,342.400 211.221 C 342.400 211.623,342.580 212.064,342.800 212.200 C 343.038 212.347,343.200 211.871,343.200 211.024 C 343.200 209.996,343.375 209.600,343.829 209.600 C 344.174 209.600,344.722 209.335,345.047 209.011 C 346.273 207.785,348.815 207.443,349.495 208.414 C 349.866 208.943,350.204 209.116,350.364 208.858 C 350.622 208.441,353.219 209.086,353.859 209.726 C 354.516 210.382,354.871 209.905,354.641 208.676 C 354.412 207.458,354.506 207.298,355.810 206.676 C 358.315 205.481,361.385 205.884,359.800 207.200 C 359.470 207.474,359.200 207.960,359.200 208.280 C 359.200 208.621,359.885 208.190,360.857 207.237 C 362.537 205.590,364.009 205.346,364.934 206.562 C 365.222 206.940,365.100 205.815,364.612 203.578 C 364.537 203.236,364.197 202.288,363.855 201.471 C 363.514 200.654,363.272 199.922,363.317 199.844 C 363.611 199.341,357.394 190.800,356.734 190.800 C 356.542 190.800,355.697 190.366,354.857 189.836 C 352.039 188.057,342.602 186.015,341.560 186.959 M353.935 198.602 C 354.080 198.747,353.633 199.372,352.940 199.991 C 350.273 202.374,343.919 201.971,344.550 199.458 C 344.845 198.280,352.880 197.546,353.935 198.602 M316.892 206.475 C 317.139 207.217,318.000 207.340,318.000 206.633 C 318.000 206.285,317.715 206.000,317.367 206.000 C 317.018 206.000,316.805 206.214,316.892 206.475 M316.411 214.156 C 315.864 216.433,316.219 218.400,317.177 218.400 C 317.725 218.400,318.437 216.971,318.210 216.329 C 318.107 216.038,317.944 215.350,317.846 214.800 C 317.348 211.978,316.973 211.810,316.411 214.156 M325.200 216.200 C 325.200 216.530,325.380 216.800,325.600 216.800 C 325.820 216.800,326.000 216.530,326.000 216.200 C 326.000 215.870,325.820 215.600,325.600 215.600 C 325.380 215.600,325.200 215.870,325.200 216.200 M322.123 218.772 C 321.993 219.269,321.702 219.460,321.306 219.309 C 320.896 219.151,320.753 219.260,320.877 219.636 C 321.274 220.840,322.675 220.522,322.712 219.220 C 322.751 217.847,322.429 217.603,322.123 218.772 M46.492 220.107 L 45.585 221.400 47.033 221.527 C 48.840 221.685,48.903 221.615,48.363 220.065 C 47.814 218.491,47.623 218.496,46.492 220.107 M50.524 220.973 C 50.003 221.566,50.233 222.000,51.067 222.000 C 51.360 222.000,51.600 221.640,51.600 221.200 C 51.600 220.278,51.206 220.195,50.524 220.973 M77.200 232.545 C 73.235 233.960,66.261 237.220,65.704 237.920 C 65.431 238.262,65.105 238.438,64.978 238.311 C 64.456 237.789,45.038 247.602,44.664 248.577 C 44.009 250.285,46.344 257.200,47.938 258.272 C 51.768 260.849,52.540 260.616,50.805 257.409 C 50.148 256.194,49.721 255.200,49.856 255.200 C 49.992 255.200,51.340 255.646,52.852 256.191 C 54.363 256.737,55.600 257.093,55.600 256.983 C 55.600 256.614,53.636 253.669,53.216 253.410 C 52.251 252.813,52.787 251.907,54.000 252.085 C 55.343 252.282,55.438 252.126,54.661 250.989 C 54.365 250.555,53.780 249.664,53.361 249.009 L 52.600 247.818 54.047 248.709 C 56.664 250.320,57.176 249.967,56.207 247.220 C 55.881 246.296,55.688 245.148,55.777 244.670 C 55.867 244.191,55.954 243.685,55.970 243.544 C 56.119 242.264,62.693 241.055,63.081 242.236 C 63.168 242.502,62.712 242.640,61.912 242.590 C 61.190 242.544,60.150 242.680,59.600 242.892 L 58.600 243.277 59.500 243.887 C 59.995 244.223,60.400 244.731,60.400 245.016 C 60.400 245.301,61.045 245.933,61.833 246.420 C 65.289 248.556,65.751 249.703,63.600 250.800 C 62.163 251.533,61.506 252.355,62.300 252.427 C 63.993 252.581,65.950 252.826,66.600 252.967 C 67.040 253.061,67.591 253.153,67.825 253.169 C 68.058 253.186,68.632 253.557,69.100 253.993 L 69.951 254.785 68.799 257.069 C 68.165 258.325,67.753 259.543,67.882 259.776 C 68.012 260.009,67.879 259.979,67.588 259.710 C 67.297 259.440,66.988 258.452,66.900 257.514 C 66.695 255.312,66.755 255.339,64.520 256.450 C 62.881 257.264,62.554 257.628,62.242 258.989 C 62.042 259.864,61.636 260.822,61.339 261.118 C 60.838 261.619,60.609 263.641,60.787 266.000 C 60.979 268.546,64.746 273.887,66.535 274.149 C 66.802 274.189,67.421 274.621,67.910 275.110 C 68.400 275.600,69.025 276.019,69.300 276.042 C 71.911 276.264,74.762 275.118,73.971 274.165 C 73.242 273.286,73.782 273.067,75.063 273.723 C 79.963 276.232,87.055 273.749,89.858 268.543 C 90.245 267.825,90.840 267.258,91.181 267.282 C 94.044 267.488,94.903 266.764,92.500 266.171 C 91.014 265.804,90.998 265.777,90.757 263.400 C 90.327 259.165,89.606 257.420,86.615 253.378 C 86.065 252.636,86.079 252.414,86.760 251.078 C 87.624 249.384,87.388 249.284,85.185 250.408 C 84.291 250.864,83.209 251.122,82.701 251.001 C 82.205 250.883,81.175 250.718,80.411 250.635 C 79.171 250.500,76.341 248.027,76.498 247.215 C 76.521 247.097,76.400 245.808,76.229 244.351 C 75.867 241.272,76.102 240.640,78.587 238.000 C 80.150 236.339,82.400 232.769,82.400 231.950 C 82.400 231.311,79.835 231.605,77.200 232.545 M317.606 237.100 C 317.624 237.977,318.388 238.559,318.394 237.700 C 318.397 237.205,318.220 236.800,318.000 236.800 C 317.780 236.800,317.603 236.935,317.606 237.100 M307.606 243.189 C 306.943 244.502,306.400 245.798,306.400 246.067 C 306.400 246.817,308.623 243.574,309.120 242.100 C 309.849 239.939,308.903 240.619,307.606 243.189 M311.870 242.587 C 310.557 244.935,309.398 248.530,308.962 251.606 C 308.420 255.425,308.670 258.185,309.974 262.800 C 310.254 263.790,310.601 264.690,310.745 264.800 C 310.889 264.910,311.481 265.720,312.059 266.600 C 316.080 272.716,324.716 277.766,331.499 277.968 C 333.713 278.033,338.663 277.044,339.200 276.429 C 339.310 276.303,339.638 276.151,339.929 276.090 C 340.499 275.972,342.481 274.633,343.755 273.505 C 344.188 273.122,344.900 272.695,345.338 272.556 C 347.998 271.712,350.775 266.892,349.365 265.567 C 348.834 265.069,348.400 264.872,348.400 265.130 C 348.400 265.389,348.136 265.600,347.814 265.600 C 347.164 265.600,346.285 264.249,346.678 263.855 C 346.815 263.718,346.366 263.493,345.680 263.356 C 344.993 263.219,344.469 262.902,344.516 262.653 C 344.562 262.404,344.195 262.195,343.700 262.189 C 341.895 262.166,340.052 259.804,340.353 257.900 C 340.463 257.199,339.950 257.681,339.597 258.608 C 339.099 259.918,338.058 259.349,337.135 257.260 L 336.489 255.800 336.207 257.037 C 335.778 258.922,333.811 258.520,334.121 256.611 C 334.337 255.277,333.987 254.284,333.363 254.461 C 332.636 254.668,330.400 253.162,330.400 252.466 C 330.400 251.155,329.355 250.081,329.042 251.069 C 328.862 251.634,328.492 251.856,327.847 251.785 C 326.439 251.631,326.145 252.007,325.880 254.296 C 325.731 255.591,325.326 256.728,324.819 257.271 C 324.369 257.755,324.000 258.298,324.000 258.479 C 324.000 258.659,322.605 259.480,320.900 260.303 C 319.195 261.126,317.668 261.980,317.506 262.200 C 317.330 262.440,317.210 262.378,317.206 262.044 C 317.199 261.387,318.349 260.437,319.200 260.398 C 319.530 260.383,320.960 259.209,322.377 257.790 L 324.955 255.210 324.977 252.377 C 324.995 250.127,324.862 249.467,324.330 249.169 C 323.720 248.828,323.753 248.623,324.692 246.897 C 325.260 245.854,325.481 245.225,325.182 245.500 C 324.196 246.410,322.038 246.122,321.533 245.013 C 321.285 244.469,320.917 244.127,320.715 244.253 C 320.512 244.378,320.134 244.196,319.873 243.849 C 319.613 243.501,318.230 242.785,316.800 242.258 C 315.370 241.730,313.907 241.175,313.548 241.025 C 313.060 240.820,312.638 241.213,311.870 242.587 M76.693 254.786 C 77.648 255.676,77.787 256.056,78.377 259.368 C 78.902 262.320,78.860 262.355,76.622 260.815 C 73.650 258.770,72.891 257.008,74.160 255.100 C 75.028 253.795,75.559 253.729,76.693 254.786 M81.005 261.971 C 80.854 262.865,80.599 263.677,80.439 263.776 C 80.279 263.875,80.329 263.070,80.551 261.988 C 81.030 259.650,81.399 259.636,81.005 261.971 M67.879 261.339 C 67.329 262.770,69.021 268.255,70.520 269.900 C 70.971 270.395,71.128 270.800,70.870 270.800 C 70.611 270.800,70.399 270.665,70.398 270.500 C 70.397 270.335,69.835 269.601,69.149 268.869 C 67.560 267.173,67.071 267.598,66.790 270.920 L 66.580 273.400 64.897 271.640 C 62.425 269.057,60.960 264.533,61.847 262.221 C 62.048 261.698,62.332 261.843,63.347 262.986 C 64.036 263.762,65.275 264.670,66.100 265.004 L 67.600 265.611 67.363 263.205 C 67.193 261.471,67.261 260.800,67.606 260.800 C 67.870 260.800,67.993 261.042,67.879 261.339 M81.556 268.771 C 82.008 270.891,81.573 272.026,80.397 271.799 C 78.689 271.470,78.596 271.154,79.338 268.200 C 79.448 267.760,79.553 267.083,79.569 266.697 C 79.631 265.289,81.152 266.878,81.556 268.771 M337.578 267.380 C 338.493 268.208,338.669 269.530,337.900 269.801 C 336.652 270.240,335.063 270.328,334.215 270.006 C 333.177 269.611,330.400 267.285,330.400 266.809 C 330.400 266.111,336.732 266.615,337.578 267.380 M119.400 287.600 C 119.264 287.820,119.298 288.002,119.476 288.004 C 119.654 288.006,118.900 288.437,117.800 288.961 C 115.847 289.893,114.727 290.829,113.275 292.746 L 112.558 293.692 110.701 292.846 C 107.346 291.317,104.295 292.163,104.392 294.596 C 104.436 295.710,104.275 296.064,103.486 296.581 C 101.893 297.624,97.651 294.615,98.922 293.344 C 99.091 293.176,100.806 292.867,101.776 292.830 C 103.523 292.763,101.010 291.626,99.087 291.613 C 94.848 291.585,96.770 296.688,102.024 299.411 C 103.471 300.161,104.768 298.876,105.381 296.087 C 105.841 293.991,107.447 293.391,109.844 294.419 C 110.887 294.866,111.979 295.140,112.270 295.028 C 112.609 294.898,112.800 295.137,112.800 295.691 C 112.800 296.167,113.270 297.047,113.845 297.647 L 114.889 298.737 113.017 302.587 C 111.569 305.563,110.992 306.392,110.472 306.242 C 109.749 306.032,107.842 305.889,106.688 305.958 C 106.035 305.997,106.046 306.095,106.828 307.152 C 107.406 307.934,107.924 308.240,108.440 308.105 C 108.937 307.975,109.200 308.114,109.200 308.507 C 109.200 309.060,108.098 309.581,106.900 309.595 C 106.625 309.598,106.400 309.150,106.400 308.600 C 106.400 307.655,106.057 307.420,104.900 307.570 C 104.625 307.606,104.400 307.261,104.400 306.803 C 104.400 306.096,104.281 306.036,103.600 306.400 C 102.619 306.925,102.568 306.724,102.898 303.658 C 103.049 302.257,101.539 301.318,100.617 302.240 C 100.072 302.785,100.044 302.982,100.470 303.252 C 101.300 303.778,101.708 303.659,101.443 302.967 C 101.288 302.564,101.382 302.394,101.700 302.500 C 102.346 302.716,102.377 307.121,101.736 307.653 C 101.097 308.183,100.000 306.553,100.000 305.073 C 100.000 302.511,97.331 299.946,96.208 301.430 C 95.389 302.513,95.463 303.200,96.400 303.200 C 96.840 303.200,97.200 303.026,97.200 302.813 C 97.200 302.599,96.885 302.543,96.500 302.687 C 95.887 302.917,95.868 302.866,96.349 302.275 C 97.420 300.958,99.600 302.990,99.600 305.306 C 99.600 305.887,99.809 306.822,100.065 307.383 C 100.321 307.944,100.396 308.537,100.232 308.701 C 99.953 308.981,99.495 308.508,96.683 305.032 C 95.266 303.281,93.656 303.231,93.093 304.920 C 92.838 305.686,92.873 306.206,93.208 306.609 C 93.782 307.302,94.402 307.023,94.394 306.076 C 94.389 305.553,94.311 305.521,94.050 305.934 C 93.773 306.370,93.670 306.361,93.487 305.882 C 92.711 303.861,95.608 303.965,96.752 305.999 C 97.246 306.879,97.978 307.774,98.378 307.988 C 99.778 308.737,99.595 309.469,97.670 310.815 C 95.706 312.188,92.774 315.088,92.896 315.537 C 92.936 315.682,92.675 316.430,92.317 317.200 C 91.103 319.808,90.000 322.500,90.000 322.851 C 90.000 323.281,91.082 323.317,91.267 322.893 C 91.456 322.457,95.437 319.600,95.854 319.601 C 96.044 319.602,96.740 320.610,97.400 321.842 C 99.136 325.081,102.846 328.000,105.227 328.000 C 105.931 328.000,106.044 328.171,105.849 328.947 C 105.562 330.092,105.438 336.771,105.700 337.033 C 106.159 337.492,115.505 326.164,116.640 323.772 C 117.137 322.725,117.479 322.430,117.956 322.638 C 118.310 322.793,119.548 323.038,120.708 323.182 C 123.103 323.480,124.277 324.350,123.793 325.469 C 123.497 326.152,123.465 326.154,123.309 325.500 C 123.103 324.638,122.400 324.571,122.400 325.413 C 122.400 326.486,123.663 326.609,124.469 325.614 C 125.458 324.393,123.775 323.032,120.786 322.636 C 117.914 322.255,117.539 322.061,118.001 321.197 C 118.359 320.529,118.530 320.518,120.280 321.044 C 121.320 321.357,122.838 321.514,123.653 321.392 C 125.334 321.141,126.135 321.828,124.757 322.338 C 124.227 322.534,124.039 322.777,124.296 322.935 C 124.979 323.358,126.000 322.786,126.000 321.981 C 126.000 320.951,125.603 320.797,122.520 320.629 C 118.957 320.435,116.692 319.499,119.406 319.342 C 121.199 319.238,122.400 318.797,122.400 318.241 C 122.400 317.206,123.417 316.734,124.543 317.247 C 125.662 317.756,125.613 318.519,124.487 318.124 C 123.945 317.933,123.900 317.990,124.273 318.394 C 124.836 319.004,126.000 318.655,126.000 317.877 C 126.000 317.575,125.542 317.120,124.981 316.864 C 123.836 316.342,122.253 316.239,122.541 316.704 C 122.918 317.314,121.725 318.340,120.337 318.601 C 118.922 318.866,118.911 318.857,118.652 317.234 C 118.360 315.408,118.425 315.458,117.047 315.982 C 116.211 316.300,116.001 316.233,115.794 315.582 C 115.611 315.005,115.184 314.800,114.168 314.800 C 112.794 314.800,112.791 314.796,113.036 313.264 L 113.282 311.727 110.977 311.919 C 108.921 312.089,108.701 312.036,108.936 311.422 C 109.081 311.044,109.200 310.524,109.200 310.267 C 109.201 309.002,112.855 309.758,114.188 311.300 C 114.901 312.125,115.686 312.800,115.932 312.800 C 116.178 312.800,116.664 313.351,117.013 314.025 C 117.809 315.563,118.946 315.463,119.132 313.838 C 119.213 313.129,118.947 312.254,118.441 311.569 L 117.617 310.455 120.092 308.595 C 123.961 305.686,124.663 305.400,124.967 306.611 C 125.722 309.619,130.155 304.976,132.139 299.100 C 132.269 298.715,132.561 298.400,132.787 298.400 C 133.636 298.400,133.132 297.366,131.813 296.400 C 130.818 295.671,130.502 295.178,130.647 294.580 C 130.934 293.399,129.246 292.515,128.086 293.239 C 126.902 293.979,124.695 291.855,124.877 290.152 C 124.988 289.116,124.888 289.008,123.895 289.076 C 123.199 289.124,122.399 288.790,121.736 288.176 C 120.621 287.142,119.807 286.941,119.400 287.600 M274.000 288.919 C 274.000 289.039,274.645 290.406,275.434 291.959 C 278.521 298.036,274.039 300.444,268.706 295.573 C 268.013 294.940,267.377 294.490,267.293 294.574 C 266.893 294.974,268.503 297.128,270.003 298.200 C 270.926 298.860,272.069 299.842,272.541 300.381 C 273.013 300.921,273.961 301.911,274.647 302.581 C 275.332 303.252,276.548 305.101,277.347 306.691 L 278.801 309.583 277.239 310.380 C 273.294 312.393,272.169 316.210,274.312 320.320 C 274.971 321.586,275.094 322.227,274.816 322.957 C 274.535 323.697,274.614 324.070,275.159 324.563 C 276.132 325.443,278.400 324.706,278.400 323.510 C 278.400 322.785,278.574 322.726,280.013 322.956 C 280.901 323.098,281.955 323.038,282.355 322.824 C 284.224 321.824,284.260 324.220,282.402 325.953 C 279.677 328.494,277.211 328.603,274.300 326.313 C 272.511 324.905,272.456 325.068,273.891 327.529 C 275.598 330.458,278.101 332.262,279.850 331.823 C 280.927 331.553,285.236 328.909,285.697 328.234 C 285.887 327.958,286.344 328.236,286.956 329.000 C 287.484 329.660,288.278 330.613,288.720 331.117 L 289.523 332.034 291.662 331.263 C 292.838 330.839,294.115 330.362,294.500 330.203 C 295.406 329.829,295.488 333.316,294.639 336.136 C 294.331 337.161,294.160 338.000,294.260 338.000 C 294.766 338.000,295.554 335.066,295.669 332.749 L 295.800 330.126 297.008 330.630 C 298.742 331.353,301.746 331.759,301.416 331.225 C 301.271 330.991,300.516 330.800,299.737 330.800 C 298.958 330.800,297.687 330.499,296.911 330.131 L 295.501 329.462 296.651 328.632 C 301.083 325.429,301.422 324.584,299.571 321.349 C 298.894 320.167,298.502 319.200,298.698 319.200 C 298.895 319.200,300.078 318.233,301.328 317.051 C 304.324 314.218,304.327 313.229,301.349 308.911 L 300.306 307.400 300.577 309.663 C 300.874 312.139,299.946 313.564,296.910 315.296 L 295.690 315.992 294.171 314.096 C 293.335 313.053,292.621 312.151,292.584 312.091 C 292.547 312.032,291.562 312.425,290.395 312.966 L 288.274 313.948 287.594 313.074 C 286.674 311.893,285.500 309.567,285.715 309.352 C 286.938 308.129,300.795 304.190,300.803 305.062 C 300.804 305.248,302.775 307.423,305.181 309.897 C 309.137 313.962,310.461 314.866,309.753 313.021 C 309.579 312.568,310.185 311.739,311.755 310.285 C 314.277 307.949,314.429 307.499,313.009 306.569 C 311.089 305.311,309.339 305.177,308.849 306.251 C 308.612 306.773,308.147 307.200,307.818 307.200 C 307.488 307.200,306.916 307.661,306.547 308.225 L 305.875 309.251 303.588 306.988 C 302.330 305.744,301.324 304.427,301.351 304.063 C 301.381 303.661,301.047 303.350,300.504 303.273 C 300.010 303.203,299.340 302.763,299.013 302.297 C 298.686 301.830,298.295 301.571,298.145 301.722 C 297.995 301.872,298.195 302.352,298.590 302.789 C 299.396 303.680,299.507 303.596,296.200 304.601 C 294.157 305.222,285.758 307.200,285.164 307.200 C 284.984 307.200,284.721 306.615,284.581 305.900 C 284.332 304.638,283.940 303.864,280.632 298.122 C 277.819 293.238,274.000 287.938,274.000 288.919 M284.688 313.754 C 285.616 314.439,286.381 315.113,286.388 315.251 C 286.397 315.440,282.544 318.862,281.668 319.444 C 281.595 319.492,281.746 319.926,282.005 320.409 C 282.770 321.838,281.971 322.187,279.678 321.426 C 278.581 321.062,277.255 320.871,276.730 321.003 C 275.920 321.206,275.702 321.038,275.288 319.893 C 274.116 316.651,275.102 314.666,279.000 312.420 C 281.239 311.130,281.087 311.094,284.688 313.754 M169.847 311.924 C 169.749 312.083,169.478 313.560,169.244 315.206 C 168.220 322.422,168.524 322.158,160.827 322.519 C 159.333 322.589,158.189 322.834,158.099 323.102 C 157.831 323.906,164.482 334.682,165.990 335.887 C 166.752 336.496,167.075 336.503,161.415 335.797 C 158.784 335.469,156.444 335.200,156.215 335.200 C 155.987 335.200,155.744 336.133,155.675 337.272 C 155.607 338.412,155.355 339.711,155.115 340.160 C 154.665 341.000,153.734 345.706,153.427 348.687 C 153.257 350.341,153.281 350.379,154.645 350.635 C 155.968 350.883,156.004 350.932,155.370 351.633 C 154.643 352.437,154.835 353.584,155.675 353.457 C 156.721 353.299,157.265 352.693,157.062 351.915 C 156.897 351.284,157.013 351.162,157.631 351.324 C 158.609 351.580,164.849 352.957,168.800 353.790 C 170.450 354.137,172.174 354.520,172.632 354.640 C 173.416 354.845,173.490 354.613,173.932 350.529 C 174.530 345.012,174.545 345.237,173.600 345.484 C 172.893 345.669,172.797 345.490,172.770 343.947 L 172.741 342.200 172.070 343.679 C 171.503 344.931,171.289 345.095,170.676 344.746 C 170.277 344.519,169.718 344.423,169.433 344.532 C 168.962 344.713,168.791 345.363,168.122 349.500 C 168.007 350.215,167.786 350.800,167.631 350.800 C 163.707 350.800,157.083 349.290,157.304 348.445 C 157.396 348.090,157.816 346.036,158.236 343.880 L 159.000 339.960 162.600 340.219 C 164.580 340.362,166.305 340.543,166.434 340.622 C 166.562 340.701,169.324 340.954,172.572 341.185 C 175.819 341.415,178.918 341.715,179.458 341.850 C 180.376 342.081,180.419 342.022,180.123 340.948 C 179.948 340.317,179.818 339.215,179.833 338.500 C 179.848 337.785,179.757 337.171,179.630 337.136 C 179.378 337.067,173.795 336.878,170.551 336.830 L 168.502 336.800 168.488 330.000 C 168.476 324.434,168.575 323.191,169.036 323.150 C 169.346 323.123,169.735 323.077,169.900 323.049 C 170.757 322.902,176.400 319.878,176.400 319.565 C 176.400 319.364,175.967 319.200,175.437 319.200 C 174.672 319.200,174.518 319.036,174.684 318.400 C 174.932 317.451,174.089 317.304,173.732 318.234 C 173.407 319.079,172.826 318.205,172.778 316.800 C 172.735 315.554,171.395 318.355,170.982 320.553 C 170.774 321.664,170.516 321.951,169.605 322.085 L 168.484 322.249 169.057 320.425 C 169.372 319.421,169.814 317.520,170.039 316.200 C 170.264 314.880,170.606 313.410,170.800 312.934 C 171.141 312.095,170.295 311.199,169.847 311.924 M103.994 314.900 C 103.991 315.175,103.818 315.668,103.611 315.997 C 103.111 316.787,102.274 315.994,102.630 315.067 C 102.927 314.293,104.003 314.161,103.994 314.900 M235.839 317.700 C 234.802 321.507,234.274 322.837,233.863 322.680 C 233.249 322.444,228.797 323.359,227.698 323.948 C 227.233 324.196,226.766 324.400,226.659 324.400 C 226.359 324.400,225.600 320.519,225.600 318.980 C 225.600 317.347,225.696 317.369,223.411 318.480 C 221.419 319.447,221.282 319.768,222.265 321.171 C 222.630 321.693,223.317 322.885,223.791 323.821 L 224.652 325.522 223.426 326.108 C 222.752 326.430,221.418 327.348,220.462 328.147 C 218.416 329.858,218.598 329.821,217.483 328.756 C 215.696 327.047,212.425 324.737,212.088 324.945 C 211.898 325.063,211.497 325.934,211.199 326.880 C 210.900 327.826,210.475 328.839,210.254 329.130 C 209.687 329.878,210.264 330.146,213.803 330.774 C 217.263 331.389,217.409 331.508,216.600 333.058 C 216.273 333.686,216.001 335.010,215.997 336.000 C 215.981 339.537,214.624 340.232,211.255 338.429 C 210.624 338.092,209.200 341.214,209.200 342.932 C 209.200 343.012,210.145 342.751,211.300 342.352 C 214.367 341.292,215.600 341.356,215.600 342.574 C 215.600 343.800,216.284 345.676,216.924 346.200 C 217.527 346.695,218.912 348.828,218.732 348.984 C 218.659 349.047,217.986 349.411,217.235 349.793 C 215.598 350.626,213.606 352.400,214.307 352.400 C 214.581 352.400,215.197 352.850,215.675 353.400 C 216.816 354.713,217.131 354.663,217.797 353.068 C 218.452 351.502,219.497 350.515,219.948 351.037 C 220.122 351.237,220.680 351.940,221.190 352.600 C 222.111 353.793,222.175 353.385,221.374 351.425 C 221.101 350.757,221.246 350.792,222.428 351.675 C 224.471 353.201,225.973 353.941,225.251 353.065 C 224.535 352.197,225.106 352.210,226.169 353.086 C 226.626 353.463,225.915 352.608,224.588 351.186 C 221.032 347.372,220.580 346.563,220.063 343.084 C 218.723 334.062,220.201 331.427,228.704 327.680 C 235.148 324.839,238.515 326.142,241.138 332.489 C 244.540 340.724,237.603 347.866,230.200 343.750 C 223.595 340.078,227.123 331.253,234.200 333.745 C 238.001 335.083,236.712 340.000,232.560 340.000 C 229.887 340.000,229.923 338.012,232.598 337.858 C 233.836 337.786,233.848 337.572,232.674 336.470 C 231.044 334.938,227.304 337.380,227.884 339.598 C 228.224 340.901,230.579 343.200,231.574 343.200 C 232.057 343.200,232.789 343.380,233.200 343.600 C 236.015 345.107,239.945 339.634,239.231 335.201 C 238.388 329.967,237.048 328.863,231.487 328.823 C 223.582 328.765,218.817 335.724,221.449 343.486 C 222.218 345.754,226.410 350.687,227.882 351.056 C 228.949 351.324,228.953 351.419,228.043 355.000 C 227.098 358.714,227.083 358.880,227.645 359.236 C 227.950 359.430,228.797 359.591,229.528 359.594 L 230.855 359.600 230.796 357.100 C 230.658 351.276,230.400 351.839,234.061 349.993 C 236.614 348.706,237.398 348.463,237.674 348.875 C 237.868 349.164,238.749 350.616,239.632 352.102 L 241.238 354.804 242.619 353.702 C 244.372 352.303,244.414 352.478,241.666 349.730 L 239.332 347.396 241.877 345.098 C 244.970 342.306,245.084 342.300,247.673 344.795 C 248.811 345.893,249.778 346.748,249.821 346.695 C 249.998 346.478,251.200 344.027,251.200 343.883 C 251.200 343.798,249.954 343.226,248.432 342.613 C 245.871 341.582,245.693 341.433,246.059 340.630 C 246.310 340.079,246.325 338.791,246.100 337.114 L 245.746 334.467 248.495 334.190 L 251.245 333.914 250.976 332.657 C 250.828 331.966,250.671 331.358,250.627 331.307 C 250.557 331.225,247.673 332.253,245.955 332.973 C 245.454 333.183,245.109 332.747,244.409 331.022 C 243.913 329.800,243.348 328.800,243.154 328.800 C 242.126 328.800,243.080 327.946,245.200 326.968 C 247.887 325.727,247.841 325.805,246.956 324.032 C 245.973 322.062,245.352 322.080,243.259 324.142 L 241.379 325.993 239.319 324.606 C 236.578 322.760,236.577 322.754,238.356 320.750 L 239.901 319.008 238.310 318.104 C 236.491 317.071,236.031 316.996,235.839 317.700 M296.619 320.037 C 297.472 321.686,297.167 321.857,295.650 320.581 C 294.211 319.370,294.064 318.800,295.190 318.800 C 295.668 318.800,296.232 319.288,296.619 320.037 M111.361 322.158 C 111.172 322.650,110.948 322.693,110.327 322.361 C 109.566 321.953,109.562 321.905,110.242 321.153 C 111.044 320.267,111.819 320.963,111.361 322.158 M167.505 328.682 C 167.543 331.717,167.478 334.515,167.360 334.900 C 167.130 335.654,166.400 335.869,166.400 335.183 C 166.400 334.953,165.700 333.828,164.845 332.683 C 163.990 331.537,162.685 329.549,161.945 328.265 C 161.205 326.980,160.314 325.450,159.964 324.865 L 159.328 323.800 161.164 323.594 C 162.174 323.481,163.998 323.338,165.218 323.276 L 167.436 323.164 167.505 328.682 M288.104 325.816 C 289.204 326.836,289.565 328.000,288.781 328.000 C 288.194 328.000,286.400 325.997,286.400 325.342 C 286.400 324.544,286.875 324.676,288.104 325.816 M182.000 337.850 L 180.200 339.292 181.600 338.999 C 184.035 338.488,184.895 337.881,184.307 337.089 C 183.843 336.465,183.648 336.530,182.000 337.850 M149.600 337.529 C 149.600 337.752,149.497 338.202,149.372 338.529 C 149.143 339.126,149.233 339.159,152.900 339.842 C 154.481 340.137,154.125 339.723,151.500 338.215 C 150.455 337.615,149.600 337.306,149.600 337.529 M148.800 344.733 C 148.800 345.276,149.023 345.487,149.500 345.395 C 149.885 345.322,150.830 345.236,151.600 345.205 C 153.155 345.143,152.571 344.759,150.100 344.220 C 148.974 343.974,148.800 344.043,148.800 344.733 M181.200 344.869 C 180.650 345.035,179.660 345.310,179.000 345.481 C 178.009 345.737,178.246 345.812,180.364 345.916 C 182.776 346.034,183.571 345.741,183.594 344.725 C 183.601 344.394,182.568 344.456,181.200 344.869 M178.222 350.392 C 177.735 350.563,178.166 350.793,179.586 351.121 C 182.310 351.750,182.400 351.739,182.400 350.782 C 182.400 349.940,180.117 349.728,178.222 350.392 M150.973 353.448 C 149.127 355.602,148.951 356.096,149.785 356.787 C 150.321 357.233,150.567 356.941,151.626 354.608 C 153.124 351.304,152.999 351.083,150.973 353.448 M158.455 355.704 C 158.160 356.417,157.567 357.785,157.137 358.744 C 156.249 360.723,156.229 360.641,157.701 361.011 C 158.599 361.236,158.805 361.151,158.829 360.543 C 158.845 360.135,158.990 358.877,159.151 357.748 C 159.541 355.017,159.180 353.955,158.455 355.704 M167.070 357.356 C 166.742 359.731,166.720 362.187,167.023 362.490 C 167.321 362.788,168.834 362.379,168.635 362.055 C 168.548 361.915,168.361 360.879,168.219 359.754 C 167.721 355.819,167.380 355.107,167.070 357.356 M177.237 358.006 C 178.863 360.324,178.952 360.387,179.688 359.720 C 180.436 359.044,180.429 359.011,179.354 358.228 C 178.750 357.788,177.812 357.017,177.270 356.514 C 175.520 354.893,175.506 355.538,177.237 358.006 " stroke="none" fill="#040404" fill-rule="evenodd"></path></g></svg>